<svg width="70" height="63" viewBox="0 0 70 63" fill="none" xmlns="http://www.w3.org/2000/svg">
<path d="M7.3492 63H62.6508C68.3058 63 71.831 56.8139 69.0035 51.8873L41.3527 3.69499C38.5252 -1.23166 31.4748 -1.23166 28.6473 3.69499L0.996498 51.8873C-1.83101 56.8139 1.69419 63 7.3492 63ZM35 37.0703C32.9803 37.0703 31.3279 35.4034 31.3279 33.366V25.9575C31.3279 23.9202 32.9803 22.2533 35 22.2533C37.0196 22.2533 38.6721 23.9202 38.6721 25.9575V33.366C38.6721 35.4034 37.0196 37.0703 35 37.0703ZM38.6721 51.8873H31.3279V44.4788H38.6721V51.8873Z" fill="#F8C100"/>
</svg>
