<svg width="25" height="25" viewBox="0 0 25 25" fill="none" xmlns="http://www.w3.org/2000/svg">
<path d="M19.325 19.45C17.993 19.45 16.925 20.518 16.925 21.85C16.925 22.4865 17.1779 23.097 17.6279 23.5471C18.078 23.9971 18.6885 24.25 19.325 24.25C19.9615 24.25 20.572 23.9971 21.0221 23.5471C21.4721 23.097 21.725 22.4865 21.725 21.85C21.725 21.2135 21.4721 20.603 21.0221 20.1529C20.572 19.7029 19.9615 19.45 19.325 19.45ZM0.125 0.25V2.65H2.525L6.845 11.758L5.213 14.698C5.033 15.034 4.925 15.43 4.925 15.85C4.925 16.4865 5.17786 17.097 5.62794 17.5471C6.07803 17.9971 6.68848 18.25 7.325 18.25H21.725V15.85H7.829C7.74944 15.85 7.67313 15.8184 7.61687 15.7621C7.56061 15.7059 7.529 15.6296 7.529 15.55C7.529 15.49 7.541 15.442 7.565 15.406L8.645 13.45H17.585C18.485 13.45 19.277 12.946 19.685 12.214L23.981 4.45C24.065 4.258 24.125 4.054 24.125 3.85C24.125 3.53174 23.9986 3.22652 23.7735 3.00147C23.5485 2.77643 23.2433 2.65 22.925 2.65H5.177L4.049 0.25M7.325 19.45C5.993 19.45 4.925 20.518 4.925 21.85C4.925 22.4865 5.17786 23.097 5.62794 23.5471C6.07803 23.9971 6.68848 24.25 7.325 24.25C7.96152 24.25 8.57197 23.9971 9.02206 23.5471C9.47214 23.097 9.725 22.4865 9.725 21.85C9.725 21.2135 9.47214 20.603 9.02206 20.1529C8.57197 19.7029 7.96152 19.45 7.325 19.45Z" fill="black"/>
</svg>
