<svg width="29" height="29" viewBox="0 0 29 29" fill="none" xmlns="http://www.w3.org/2000/svg">
<path d="M14.5 29C12.4942 29 10.6092 28.6191 8.845 27.8574C7.08083 27.0957 5.54625 26.0628 4.24125 24.7587C2.93625 23.4547 1.90337 21.9201 1.1426 20.155C0.381835 18.3899 0.000968501 16.5049 1.83544e-06 14.5C-0.000964831 12.4951 0.379902 10.6101 1.1426 8.845C1.9053 7.07987 2.93818 5.54528 4.24125 4.24125C5.54431 2.93722 7.0789 1.90433 8.845 1.1426C10.6111 0.380867 12.4961 0 14.5 0C16.5039 0 18.3889 0.380867 20.155 1.1426C21.9211 1.90433 23.4557 2.93722 24.7587 4.24125C26.0618 5.54528 27.0952 7.07987 27.8588 8.845C28.6225 10.6101 29.0029 12.4951 29 14.5C28.9971 16.5049 28.6162 18.3899 27.8574 20.155C27.0986 21.9201 26.0657 23.4547 24.7587 24.7587C23.4518 26.0628 21.9172 27.0961 20.155 27.8588C18.3928 28.6215 16.5078 29.0019 14.5 29ZM14.5 26.1C17.7383 26.1 20.4812 24.9762 22.7287 22.7287C24.9762 20.4812 26.1 17.7383 26.1 14.5C26.1 11.2617 24.9762 8.51875 22.7287 6.27125C20.4812 4.02375 17.7383 2.9 14.5 2.9C11.2617 2.9 8.51875 4.02375 6.27125 6.27125C4.02375 8.51875 2.9 11.2617 2.9 14.5C2.9 17.7383 4.02375 20.4812 6.27125 22.7287C8.51875 24.9762 11.2617 26.1 14.5 26.1Z" fill="#FF9843"/>
</svg>
