<svg width="69" height="69" viewBox="0 0 69 69" fill="none" xmlns="http://www.w3.org/2000/svg">
<path d="M43.6548 0.535156C30.0302 0.535156 18.9824 11.5829 18.9824 25.2147C18.9824 38.8393 30.0302 49.8871 43.6548 49.8871C57.2866 49.8871 68.3344 38.8393 68.3344 25.2147C68.3344 11.5829 57.2866 0.535156 43.6548 0.535156Z" fill="#D28147"/>
<path d="M24.6795 19.52C11.0478 19.52 0 30.5678 0 44.1924C0 57.8242 11.0478 68.872 24.6795 68.872C38.3042 68.872 49.3519 57.8242 49.3519 44.1924C49.3519 30.5678 38.3042 19.52 24.6795 19.52Z" fill="#F6B059"/>
<path d="M21.8335 38.4969C19.2068 38.4969 17.0855 40.6253 17.0855 43.2449C17.0855 45.8644 19.2068 47.9928 21.8335 47.9928C24.4531 47.9928 26.5744 45.8644 26.5744 43.2449C26.5744 40.6253 24.4531 38.4969 21.8335 38.4969ZM25.6276 27.1074C24.0544 27.1074 22.7802 28.3816 22.7802 29.9548C22.7802 31.528 24.0544 32.8021 25.6276 32.8021C27.2008 32.8021 28.475 31.528 28.475 29.9548C28.475 28.3816 27.2008 27.1074 25.6276 27.1074ZM32.2691 49.8863C30.1763 49.8863 28.475 51.5876 28.475 53.6876C28.475 55.7804 30.1763 57.4817 32.2691 57.4817C34.369 57.4817 36.0703 55.7804 36.0703 53.6876C36.0703 51.5876 34.369 49.8863 32.2691 49.8863ZM10.444 44.1916C8.87088 44.1916 7.59668 45.4658 7.59668 47.039C7.59668 48.6121 8.87088 49.8863 10.444 49.8863C12.0172 49.8863 13.2914 48.6121 13.2914 47.039C13.2914 45.4658 12.0172 44.1916 10.444 44.1916ZM37.0171 38.4969C35.4439 38.4969 34.1697 39.7711 34.1697 41.3442C34.1697 42.9174 35.4439 44.1916 37.0171 44.1916C38.5902 44.1916 39.8644 42.9174 39.8644 41.3442C39.8644 39.7711 38.5902 38.4969 37.0171 38.4969ZM18.9861 55.5811C17.9326 55.5811 17.0855 56.4353 17.0855 57.4817C17.0855 58.5281 17.9326 59.3823 18.9861 59.3823C20.0325 59.3823 20.8796 58.5281 20.8796 57.4817C20.8796 56.4353 20.0325 55.5811 18.9861 55.5811Z" fill="#6D420D"/>
<path d="M37.9631 8.13157C35.8702 8.13157 34.1689 9.82575 34.1689 11.9257C34.1689 14.0256 35.8702 15.7198 37.9631 15.7198C40.063 15.7198 41.7643 14.0256 41.7643 11.9257C41.7643 9.82575 40.063 8.13157 37.9631 8.13157ZM48.4058 17.6204C46.8326 17.6204 45.5584 18.8946 45.5584 20.4678C45.5584 22.0409 46.8326 23.3151 48.4058 23.3151C49.9789 23.3151 51.2531 22.0409 51.2531 20.4678C51.2531 18.8946 49.9789 17.6204 48.4058 17.6204ZM50.2993 6.23096C48.7261 6.23096 47.4519 7.50515 47.4519 9.07832C47.4519 10.6515 48.7261 11.9257 50.2993 11.9257C51.8724 11.9257 53.1466 10.6515 53.1466 9.07832C53.1466 7.50515 51.8724 6.23096 50.2993 6.23096ZM56.9479 27.1093C55.9014 27.1093 55.0472 27.9635 55.0472 29.0099C55.0472 30.0563 55.9014 30.9105 56.9479 30.9105C57.9943 30.9105 58.8485 30.0563 58.8485 29.0099C58.8485 27.9635 57.9943 27.1093 56.9479 27.1093Z" fill="#7A441D"/>
</svg>
