<svg width="36" height="36" viewBox="0 0 24 24" fill="none" xmlns="http://www.w3.org/2000/svg">
<path d="M11.4286 5.14258H6.28571C5.67951 5.14258 5.09812 5.38339 4.66947 5.81205C4.24082 6.2407 4 6.82208 4 7.42829V17.714C4 18.3202 4.24082 18.9016 4.66947 19.3303C5.09812 19.7589 5.67951 19.9997 6.28571 19.9997H17.7143C18.3205 19.9997 18.9019 19.7589 19.3305 19.3303C19.7592 18.9016 20 18.3202 20 17.714V12.5711" stroke="#F8F8F8" stroke-width="1.14286" stroke-linecap="round" stroke-linejoin="round"/>
<path d="M17.7151 6.28501L18.8043 7.42786M20.0008 3.96158C20.3055 4.27661 20.4742 4.69874 20.4706 5.13698C20.4669 5.57523 20.2913 5.9945 19.9814 6.30444L12.0008 14.285L8.57227 15.4279L9.71512 11.9993L17.7003 3.94672C17.981 3.66384 18.3566 3.4951 18.7546 3.47315C19.1525 3.4512 19.5444 3.57758 19.8546 3.82786L20.0008 3.96158Z" stroke="#F8F8F8" stroke-width="1.14286" stroke-linecap="round" stroke-linejoin="round"/>
</svg>
