<svg width="42" height="42" viewBox="0 0 42 42" fill="none" xmlns="http://www.w3.org/2000/svg">
<path d="M33.7411 31.8839C33.863 32.0058 33.9598 32.1506 34.0258 32.3099C34.0918 32.4693 34.1257 32.64 34.1257 32.8125C34.1257 32.985 34.0918 33.1557 34.0258 33.3151C33.9598 33.4744 33.863 33.6191 33.7411 33.7411C33.6191 33.863 33.4744 33.9598 33.3151 34.0258C33.1557 34.0918 32.985 34.1257 32.8125 34.1257C32.64 34.1257 32.4693 34.0918 32.3099 34.0258C32.1506 33.9598 32.0058 33.863 31.8839 33.7411L21 22.8555L10.1161 33.7411C9.86981 33.9874 9.53579 34.1257 9.1875 34.1257C8.83921 34.1257 8.50518 33.9874 8.2589 33.7411C8.01263 33.4948 7.87427 33.1608 7.87427 32.8125C7.87427 32.4642 8.01263 32.1302 8.2589 31.8839L19.1445 21L8.2589 10.1161C8.01263 9.86981 7.87427 9.53579 7.87427 9.1875C7.87427 8.83921 8.01263 8.50518 8.2589 8.2589C8.50518 8.01263 8.83921 7.87427 9.1875 7.87427C9.53579 7.87427 9.86981 8.01263 10.1161 8.2589L21 19.1445L31.8839 8.2589C32.1302 8.01263 32.4642 7.87427 32.8125 7.87427C33.1608 7.87427 33.4948 8.01263 33.7411 8.2589C33.9874 8.50518 34.1257 8.83921 34.1257 9.1875C34.1257 9.53579 33.9874 9.86981 33.7411 10.1161L22.8555 21L33.7411 31.8839Z" fill="black"/>
</svg>
