<?xml version="1.0" encoding="UTF-8"?>
<svg version="1.1" viewBox="0 0 2000 2000" width="1280" height="1280" xmlns="http://www.w3.org/2000/svg">
<path transform="translate(1038,352)" d="m0 0 44 6 25 5 23 6 17 8 10 8 6 8 2 5v11l-2 6v4h19l15 4 10 6 11 9 10 6 6-1v-16l3-8 3-3 3-1h11l12 3 17 8 12 8 13 11 16 17 12 12 12 9 10 9 1 2v13l-7 13-9 10-13 9-16 8-14 5-9 3-11 1h-16l-5-3-7-10-6-10-2-1v16l8 11 4 4-1 2-11-9-4-4-5-1-1 5 4 9 4 7-7 1 1 5 7 8 4 5-6-1-6-3h-3l-1 6-2-2-2-5-4-1-3 7v27l4 8 9 8 8 7 5 7 1 3v21l-8 21-4 19-6 12-4 5-8 7-5 5v8l5 16 12 20 7 9 5 8 5 10 5 7 5-2 13-6 11-3 19 3 14 4 12 6 7 6 5 9v16h41l23 4 7 2 8-1 9-3 18-5 14-3 8-1h12l16 2 15 4 15 6 12 7 13 10 14 15 9 12 7 12 5 13 2 15v17l-3 17-8 30-9 29-6 22-8 16-8 10-11 10-10 6-18 6-9 2-18 1v86l-1 21-2 12-10 18-8 10-7 8-14 9-16 6-12 2-17 2-49-1v5l9 10 9 14 6 10 1 2v58l-2 32-2 14-4 11-10 14-11 12-16 10-1 3 4 2 10 6 12 11 6 7 8 16 5 15 1 7v68l-1 10 12-3 11-6 9-7 9-9 1-3-3-6v-7l1-4-11-14-8-16-6-16-4-16-3-24v-19h3l8 5 7 38 6 21 11 23 5 7 5-1 8-1 10 4 4 6 2 9v6l10 3 19 4 19 2h17l26-3 23-6 22-8 16-8 18-10 17-12 13-11 25-25 13-18 11-21 4-12 1-7v-23l-3-15-6-16-9-16-9-12-12-14-6-4-5 1-2 1-9-1-8-6-3-5v-12l5-8 9-6 6-1 10 4 4 5 3 7-1 10 7 8 11 11 9 13 9 15 8 17 4 14 1 7v26l-3 16-6 16-9 17-12 17-25 25-8 7-12 9-14 8-23 13-20 9-24 9-20 5-18 3-13 1h-23l-17-2-16-4-11-6-6 1-2 1h-12l-14 12-14 10-11 5-11 3h-2l-1 5-4 10-8 14-9 11-9 8-17 9-18 6-38 9-15 3-18 2h-28l-30-3-20-5-22-8-16-8-16-12-12-10-5 1-15 9-15 7-19 7-18 5-14 3-36 4-20 1h-16l-24-1-31-4-24-7-13-5-20-10-22-13-17-12-8-8-6-5-7-8-9-11-12-17-5-8v-2l-3 1-10 18-6 12-13 28-9 17-10 13-12 9-17 9-15 5-10 2h-26l-51-1-19-4-14-6-14-9-10-9-9-12-26-52-10-19-9-21-4-6-17 5 4 15v23l-4 14-6 12-6 8-7 8-11 7-10 5-13 3-9 1h-10l-15-2-10-4-12-8-9-8-8-11-7-14-3-10-1-16 2-13 5-13 6-10 9-11 10-8 12-7 12-3h29l12 3 12 6 10 8 10 12 3 4 14-3h4l-4-10-13-26-13-29-15-30-11-23-21-41-16-32-11-23-20-45-11-22-8-21-3-16v-14l-1-10-1-161v-102l1-101v-34l4-16 6-12 8-11 12-12 13-9 11-5 10-3 7-1 38-1h52l50 1 15 3 11 4 14 9 10 8 7 7 10 15 11 21 7 16 5-12 8-18 9-12 12-11 24-16 14-10 10-9 7-10 5-11 2-7v-26l-3-5 1-5 3-2h8l16 5 10 6 10 9 7 10 4 9v30l12-6 13-9 8-8 12-16 1-3-10-3-16-6-15-8-14-11-10-11-5-7-2-1-2 6-4-1-2-4-1-6v-22l-2-2h-4l-1-4 4-15 5-10 7-9 5-8-5-3 1-4 9-8 13-8 6-4-1-4-8-16-8-19-4-14-2-16v-17l2-14 7-8 14-10 7-1 26 6 15 6 14 8 17 13 8 8 4-1 10-9 8-6 9-4 3-1 1 3-3 6-1 5 18-5 6 1 5 3-1 3-8 3-8 2 2 2 8 2 4 2 7-1 11-6 18-11 15-7 14-5 11-2h18l4 6 4 10 4 4 1 5v29l-3 19-5 17-7 14-9 12-1 2 5 2 9 6 4 5 10 21 1 8h-8v22l-1 8-4-1-4-2h-3l-6 18-7 10-5 1-4-1-9 10-11 9-14 8-16 7-21 6-25 5h-31l-11-1h-9l3 3 16 8 5 2-1 5-3 4 2 4 8 6 6 5 9 2 5-1 4-5-1-9-2-6-2-4-4-2v-3h3l1-6 2-1 2 6 3 14 2 4 6-2 14-7 10-1 12 3 8 4 8 7 6 10h7l11 5 11 7 12 11 10 10 7 10 5 15 4 21 7-1h18v-5l-5-2-5-3-2-3v-3l6 1 5 4 4-2 13-2 7 1 8 5 4 4v2l5 1 7-9 4-8-2-2-4-2 2-4 12-16 2-5-10 2-2 1h-6v-5l1-4-7 4-8 9-4 1 2-8v-12l-2-16-4-12-8-16-3-12v-14l1-11-6 3-10 11-7 8-6 4h-2l1-4 2-4v-14l-4-20-1-18-1-7v-17l4-10 6-8 10-8 15-9 21-9 11-4 6-3v-2l-14-5v-2l2-1h8l8-2 11-6 5-6h-3l-12 5h-3l1-4 6-9 3-9 1-6-18 2-7 1h-12l-2-4 2-6-5-1 3-3 14-6 13-9 11-15 6-8 6-7 2-5-1-3-6 1-12 6-14 10-3-1-13-30-10-25-4-18-1-6v-12l4-16 6-11 6-8z" fill="#FDFDFD"/>
<path transform="translate(357,808)" d="m0 0h125l8 3 5 5 7 10 17 28 16 27 13 20 12 20 10 17 10 16 24 38 12 21 8 12 6 10 3-3 7-11 8-14 15-25 10-15 15-26 10-16 14-23 11-17 10-18 10-16 22-36 8-6 3-1h128l7 3 5 4 2 5v380l-3 9-7 6-3 1-104 1-9-1-6-4-4-5-1-2-1-204-6 10-8 16-12 23-13 23-12 23-6 12-10 18-11 20-12 22-16 31-7 11-6 5-3 1h-56l-6-4-6-7-10-19-8-14-14-27-15-28-14-25-8-16-10-19-12-21-6-12-8-14-4-8h-1v46l-1 157-3 6-6 5-49 1h-47l-21-1-5-4-4-5-1-4v-381l2-6 5-5z" fill="#010101"/>
<path transform="translate(1038,352)" d="m0 0 44 6 25 5 23 6 17 8 10 8 6 8 2 5v11l-2 6v4h19l15 4 10 6 11 9 10 6 6-1v-16l3-8 3-3 3-1h11l12 3 17 8 12 8 13 11 16 17 12 12 12 9 10 9 1 2v13l-7 13-9 10-13 9-16 8-14 5-9 3-11 1h-16l-5-3-7-10-6-10-2-1v16l8 11 4 4-1 2-11-9-4-4-5-1-1 5 4 9 4 7-7 1 1 5 7 8 4 5-6-1-6-3h-3l-1 6-2-2-2-5-4-1-3 7v27l4 8 9 8 8 7 5 7 1 3v21l-8 21-4 19-6 12-4 5-8 7-5 5v8l5 16 12 20 7 9 5 8 5 10 5 7 5-2 13-6 11-3 19 3 14 4 12 6 7 6 5 9v11l-6-5-5 1-5 4-7 9-7 4-7 3-5 1h-9l-7-3-8-5h-7l-10 6-11 9-5 4-9 2-8-2-9-1 2 8 2 2 2 10 8 4 3 5 4 3h6l1-2h3l1 2 6-1 12-3 8-1 6 5 7-1 15-6 7 1 1 1 7-1 6-5 4-4 9-1 2-11v-10l-8-13 2-2 4 5 1 4h3l1-10 2 3v11l-3 20-3 5-12 6-6 5-7 3-10-2-17 7-6-1-7-5-6 2-11 3h-13l-13-4-6-4-7-8-3-8-1-13-11-3-15-5-21-4-8-1h-15l-20 3-13 4-16 7-1 1-2 17-3 8-5 4-21 4-13 3h-10l-12 1-7 1-13-4v-2h-5v-3l5-2h8l2 1v2l11 2 7-1 7-3 7 1 4 2 3-5h16l2-6 3 2v2l4-1 4-7 1-6v-12l-3-10-6-9 4-4h2l-4-7-13-13-7-4-8-1-6-3-1-2-7-3-6-1-1 3h-6v2l6 2-1 3-12 1-19 2-5 2-12 2 6-7 9-3h18v-5l-5-2-5-3-2-3v-3l6 1 5 4 4-2 13-2 7 1 8 5 4 4v2l5 1 7-9 4-8-2-2-4-2 2-4 12-16 2-5-10 2-2 1h-6v-5l1-4-7 4-8 9-4 1 2-8v-12l-2-16-4-12-8-16-3-12v-14l1-11-6 3-10 11-7 8-6 4h-2l1-4 2-4v-14l-4-20-1-18-1-7v-17l4-10 6-8 10-8 15-9 21-9 11-4 6-3v-2l-14-5v-2l2-1h8l8-2 11-6 5-6h-3l-12 5h-3l1-4 6-9 3-9 1-6-18 2-7 1h-12l-2-4 2-6-5-1 3-3 14-6 13-9 11-15 6-8 6-7 2-5-1-3-6 1-12 6-14 10-3-1-13-30-10-25-4-18-1-6v-12l4-16 6-11 6-8z" fill="#57585B"/>
<path transform="translate(786,1219)" d="m0 0 26 1 8 6 2 4v7l-7 17-8 17-10 19-25 50-11 23-14 28-10 19-8 17-10 21-10 19-17 33-9 20-10 19-10 21-10 18-10 23-10 18-3 6-6 6-7 2h-68l-10-3-6-7-11-22-9-20-11-22-9-17-10-21-6-12-7-16-10-19-12-24-11-23-18-37-10-19-8-16-8-17-11-23-29-58-8-18v-10l3-5 7-4h125l9 4 4 5 8 15 12 26 9 20 12 26 12 25 13 28 5 11 7 16 15 30v2h3l2-6 8-18 7-16 13-30 15-32 11-25 5-13 7-15 12-26 9-19 3-4h2l1-3 2-1z" fill="#E12029"/>
<path transform="translate(731,432)" d="m0 0 10 1 21 5 15 6 14 8 17 13 8 8 4-1 10-9 8-6 9-4 3-1 1 3-3 6-1 5 18-5 6 1 5 3-1 3-8 3-8 2 2 2 8 2 4 2 7-1 11-6 18-11 15-7 14-5 11-2h18l4 6 4 10 4 4 1 5v29l-3 19-5 17-7 14-9 12-1 2 5 2 9 6 4 5 10 21 1 8h-8v22l-1 8-4-1-4-2h-3l-6 18-7 10-5 1-4-1-9 10-11 9-14 8-16 7-21 6-25 5h-31l-11-1h-9l3 3 16 8 5 2-1 5-3 4 2 4 8 6 5 5v2l3 1 2 7-1 5h-2l-2 7-5 4h-4l-5 7-2 1h-10l-3-1 1-6-9 4-10-1-7-5-4-5v-2h-3l-2 4-13 12-11 11-7 8-13 16-7 8h-6l-8-8-2-4v-8l4-16 7-13 9-10 10-8 6-4-5 2-10 7-9 8-7 10-3 9h-2l-2 13v11l3 5v2l4 2 7 5-2 5-10 14-12 18-16 26-11 16-10 16-4-2-9-9-2-1-1-3h-4v2l-12-1-13-5-14-9-8-9-6-11-4-11-1-4v-24l8-21 8-16 8-10 11-10 24-16 14-10 10-9 7-10 5-11 2-7v-26l-3-5 1-5 3-2h8l16 5 10 6 10 9 7 10 4 9v30l12-6 13-9 8-8 12-16 1-3-10-3-16-6-15-8-14-11-10-11-5-7-2-1-2 6-4-1-2-4-1-6v-22l-2-2h-4l-1-4 4-15 5-10 7-9 5-8-5-3 1-4 9-8 13-8 6-4-1-4-8-16-8-19-4-14-2-16v-17l2-14 7-8 14-10z" fill="#020202"/>
<path transform="translate(1088,909)" d="m0 0h41l25 3 20 4 18 6 19 10 13 9 7 8 7 11 8 16 4 10 4 20 2 29 1 109 5 3 10 3 5 6 2 5v6l-5 8-11 10-16 12-10 9-11 9-7 6-2 1-16-1-15-5-11-7-14-12-4-1-21 10-30 10-23 5-8 1h-39l-19-3-18-6-14-7-8-6-10-9-8-10-6-10-5-14-3-14v-29l4-15 8-16 8-11 6-7 11-9 10-7 16-9 23-9 15-4 19-3h43l23 1 9 1-4-13-6-8-9-6-14-3h-17l-15 1-21 6-32 13-16 7h-9l-7-3-4-5-11-27-8-18-1-3v-8l4-8 7-6 14-8 11-4 12-6 15-5 7-3 28-7z" fill="#020202"/>
<path transform="translate(896,1321)" d="m0 0h26l21 3 19 6 16 8 14 9 14 11 9 10 7 10 11 19 8 20 6 27 2 20v33l-2 10-7 6-3 1h-149l1 6 8 10 5 4 16 6 15 3h29l16-3 25-7 8-2h6l6 4 7 14 11 27 3 7v11l-5 13-9 6-19 8-22 6-21 4-6 1-18 1h-26l-23-2-25-6-16-6-16-8-11-6-11-8-15-15-11-14-7-11-7-15-5-15-4-21-2-20v-26l2-20 6-25 8-18 14-21 12-14 7-7 13-10 13-8 20-9 20-5z" fill="#E12029"/>
<path transform="translate(1210,1232)" d="m0 0h7l6 4 4 5 1 3v81l1 2 58 1 7 3 6 7v66l-3 6-5 4-4 1-58 1-2 1v114l3 8 5 5 3 1h12l15-4 17-6h7l7 4 3 5v70l-4 8-5 4-18 6-28 6-11 2h-41l-23-4-18-6-12-7-7-6v-2l-4-2-9-13-5-14-3-12-2-23v-74l-1-60-1-1h-42l-6-3-5-6-1-2v-67l7-8 3-2 45-1 1-66 3-7 6-5 13-3 51-9z" fill="#E12029"/>
<path transform="translate(1463,910)" d="m0 0h19l13 5 11 7 7 6 9 12 1 2v11l-8 31-12 45-4 8-5 4-3 1h-9l-8-7-1-4-4-2-7-6-10-3-9 1-9 5-14 14-6 8-1 80v68l-2 13-7 6-3 1h-94l-7-5-3-5v-279l6-8 4-2 28-1h40l6 3 4 5 5 12 7 22h2l10-13 4-5 8-7 15-12 15-8z" fill="#010101"/>
<path transform="translate(1038,352)" d="m0 0 44 6 25 5 23 6 17 8 10 8 6 8 2 5v11l-2 6v4h19l15 4 10 6 11 9 10 6 6-1v-16l3-8 3-3 3-1h11l12 3 17 8 12 8 13 11 16 17 12 12 12 9 10 9 1 2v13l-7 13-9 10-13 9-16 8-14 5-9 3-11 1h-16l-5-3-7-10-6-10-2-1v16l8 11 4 4-1 2-11-9-4-4-5-1-1 5 4 10-8-1-8-6-4-6-2-5v-12l5 1-4-8-9-7-10-4h-8l-5 4-8 16-7 19-6 10-7 9-7 8h-2l-4-20-4-14v-7l3-16h-2l-2 5h-2l-1-4-3 1-4 11-10 13-6 8-4 5-2-8 2-17 5-16 1-8v-13l-4-6-9-1-9 3-12 8-1 4 3 4v24h-2l-1 3-5 3h-4l3-11 2-10h-18l-3-2h2v-2l-22 3v-4l-5-1 3-3 14-6 13-9 11-15 6-8 6-7 2-5-1-3-6 1-12 6-14 10-3-1-13-30-10-25-4-18-1-6v-12l4-16 6-11 6-8z" fill="#7C7D7D"/>
<path transform="translate(357,808)" d="m0 0h125l8 3 5 5 7 10 17 28 16 27 13 20 12 20 10 17 10 16 12 19 1 6h-3v3l-6 1-32 2-57 5-30 2-90 9-16 1-5-2-2-2-2-11-2-4-2-1-1 37-1 184h-1v-381l2-6 5-5z" fill="#292628"/>
<path transform="translate(776,808)" d="m0 0h128l7 3 5 4 2 5v380h-1l-1-224-2 1-192 1h-51l-1-2-3 2 2-5 11-18 13-22 10-16 14-23 7-11 9-16 10-16 22-36 8-6z" fill="#292628"/>
<path transform="translate(1039,587)" d="m0 0h18l11 4 10 7 7 7 8 7 9 7h10l15-6 15-4 19-2h13l15 2 8 3 11 9 16 10 15 14 5 8 1 5-1 23-5 13-2 10-3 3-3 10-7 9-14 14-22 15-13 10-9 7h-5l-11-8-4-7-1-4v-18l3-18v-12l-3-9-5-5-4-2h-15l3 2h7l7 2 5 6 2 6v12l-3 19-2 20-8 5-12 4-17 3h-12l-2-1 2-4 7-8 4-7v-5l-7 11-6 7-10 8-7 1v2l-9 2-6 2-1-4 2-2v-8l5-11 1-6h-3l-1 6-6 11-6 5-6 8h-2l-1-8-2-17-3-12-8-17-2-3-2-17 2-10 5-10 3-4 24 3 4-1v-2l-19-2-14-2-9 4-8 7-9 12-4 4h-1l-1-19-3-12-1-20 4-11 10-13 7-6 1-3-6 3-11 11-3 5-3-1 1-3v-12l11-12 14-10 14-8z" fill="#FDFDFD"/>
<path transform="translate(1566,1329)" d="m0 0 7 1h4l2 4-3 6h-2l5 13 1 5v13l-5 13-6 10v6l8 4 5-1 11-9 12-6 16 1 6 3 5 5v11l-3 8-6 8-8 9-3 3 1 6-2 4 11 2 13 4 8 5 4 5 2 10-3 7-9 8-13 4h-18l-12-4-7-4-1-2-4-1-7 4-3 2-7 22-2 9-11 13-7 8-10 7-13 5-4 1h-7l-10-4-6-4-9-11-8-10-9-9-24-15-8-8-4-9v-17l5-13 6-9 10-10 14-9 14-7 9-4 9-5-1-4-9-6-7-8-4-11-2-8v-12l4-13 4-6 5-4 2-1h8l6 3 7 8 6 13 3 20 4 7 3 1 1-7 9-19 9-10 8-8 1-6 8-6zm-82 110-6 7-1 4v16l4 24 3 11 1 1 28 3h22l8-5 6-8 1-4v-7l-5-10-9-8-4-2-11-2-3-11-4-7-7-1-3 3v17h-2l-2-6-4-6-2-2-9-1 1-4 2-2z" fill="#F2E1AF"/>
<path transform="translate(1463,910)" d="m0 0h19l13 5 11 7 7 6 9 12 1 2v11l-8 31-12 45-4 8-5 4-3 1h-9l-8-7-1-4-4-2-7-6-10-3-9 1-7 4-2-1 5-5 7-3h7l10 4 6 4 1 3 3 1 3 4v3l6 3h13l2-5 3-9 2-7v-10l-10 1-26-2-39-2-16-2-23-1-22-2-21-1-33-2-14-2 1 202 1 10 1 5-4-5v-279l6-8 4-2 28-1h40l6 3 4 5 5 12 7 22h2l10-13 4-5 8-7 15-12 15-8z" fill="#292628"/>
<path transform="translate(1088,909)" d="m0 0h41l25 3 20 4 18 6 19 10 13 9 7 8 7 11 8 16 4 10v5l-8 1-133-8-92-4-34-1-10-1-2 1-5-12v-8l4-8 7-6 14-8 11-4 12-6 15-5 7-3 28-7z" fill="#2A2729"/>
<path transform="translate(331,1523)" d="m0 0h29l12 3 12 6 10 8 10 12 3 4 14-3 5 1 2 2v4l-16 5 4 15v23l-4 14-6 12-6 8-7 8-11 7-10 5-13 3-9 1h-10l-15-2-10-4-12-8-9-8-8-11-7-14-3-10-1-16 2-13 5-13 6-10 9-11 10-8 12-7z" fill="#FDFDFC"/>
<path transform="translate(1102,496)" d="m0 0 9 1 4 5 1 2v13l-2 10-5 19-1 12 1 6 3-3 11-14 7-11 3-8h3l1 4 3-3 1-2h2v8l-2 8v7l6 22 1 12 5-5 8-9 7-11 6-15 7-17 6-8 3-2h8l10 4 9 7 4 6v3l-5-1 1 12 5 10 8 6 8 2 4 6-7 1 1 5 7 8 4 5-6-1-6-3h-3l-1 6-2-2-2-5-4-1-3 7v27l4 8 9 8 8 7 5 7 1 3v21l-2 6h-1v-21l-3-9-10-11-10-8-13-8-12-10-12-3-10-1h-13l-19 2-15 4-15 6h-10l-10-8-16-15-12-7-7-2-14-1 4-2 10-7v-3l2-1v-2l-14-5v-2l2-1h8l8-2 11-6 5-6h-3l-12 5h-3l1-4 6-9 3-9 1-6-18 2-7 1h-12l-2-4 3-3 13-2h8l1 3h18l1 2-4 17-2 3 7-3 3-3h2l-1-8v-16l-3-4 1-4 10-7 8-4z" fill="#7B7C7C"/>
<path transform="translate(1512,1409)" d="m0 0 11 2 15 3 6 3 8 3 5 5v2h2l4 5 4 8v5h2l1 9 3 8v19l-7 25-3 11-11 13-7 8-10 7-13 5-4 1h-7l-10-4-6-4-9-11-8-10-9-9-24-15-8-8-4-9v-17l5-13 6-9 10-10 14-9 14-7 9-4 8-2zm-28 30-6 7-1 4v16l4 24 3 11 1 1 28 3h22l8-5 6-8 1-4v-7l-5-10-9-8-4-2-11-2-3-11-4-7-7-1-3 3v17h-2l-2-6-4-6-2-2-9-1 1-4 2-2z" fill="#E12029"/>
<path transform="translate(1641,1316)" d="m0 0 9 2 6 4 5 10-1 10 7 8 11 11 9 13 9 15 8 17 4 14 1 7v26l-3 16-6 16-9 17-12 17-25 25-8 7-12 9-14 8-23 13-20 9-24 9-20 5-18 3-13 1h-23l-17-2-16-4-11-6-6 1-2 1h-12l-14 12-14 10-11 5-6 2h-5l2-9 12-4 9-5 9-7 9-9 1-3-3-6v-7l1-4-11-14-8-16-6-16-4-16-3-24v-19h3l8 5 7 38 6 21 11 23 5 7 5-1 8-1 10 4 4 6 2 9v6l10 3 19 4 19 2h17l26-3 23-6 22-8 16-8 18-10 17-12 13-11 25-25 13-18 11-21 4-12 1-7v-23l-3-15-6-16-9-16-9-12-12-14-6-4-5 1-2 1-9-1-8-6-3-5v-12l5-8 9-6z" fill="#090808"/>
<path transform="translate(1026,817)" d="m0 0h6l8 4 1 2 10 3 4 1 6 3 14 14 3 4v3l-5 4 7 11 2 8v12l-2 8-4 6h-4l-3-3-2 6h-12l-4-1-2 5h-4l-3-2-7 1-8 3-7-1-8-2v-2h-10l-5 2v1l5 1v1l-14 1-5 1h-9l-4-5-14-7-7-7-1-2v-27l4-10 8-8 8-6 9-9 2 1-2 2 14-3 2-1 22-2 9-1 1-2-6-2v-2l6-1z" fill="#58595C"/>
<path transform="translate(776,1408)" d="m0 0 1 4-4 11-3 14v9l2 1 2-4 4 4 2 9 1 4-1 10 3 9-1 5-1 9v6l1 4 1 7 1 1v6h2l4 9 2 7-3 9 4 6v4l3 1 1 4 3 3 3 4 2 5v2l4 1 5 3h4l2 6h2l2 4 4 2v2l3 3 1-2 3 1 3 3 5-2 4-1 8 4 10 8 9 4 5 4 8 1v3l17 1 24 3 24 2 22-2 5-2h5l4-2 16-4 14-4 10-4 2 1 1-2v2h2l1-3 4-3v-6l4 1-3-10-4-12-5-11-3-9-5-9v-2h-3l-1 2h-7l-2 2v-2h-2v-2l-5 4h-2v2l-11 3-8 5-3 3-11 1-5 1-15-1h-15l-16-4-5-3 1-2-1-1-4-1-1-3h-3l-2-2h-2v-5l-6-8-5-5-3-5-1-9v-2l4-2 2-2 4 1 1-2 2 1 11-1 17-1h8l8 1 17 1 4 1 5-1 14 1 3-3 18 1 18-1 6 1 4-1 3 1 6-1v2l3-1v4l-4 4 5-3 2-5 2-4-4-1 4-1-1-40-3-20v-8h1l4 23 1 12v33l-2 10-7 6-3 1h-149l1 6 8 10 5 4 16 6 15 3h29l16-3 25-7 8-2h6l6 4 7 14 11 27 3 7v11l-5 13-9 6-19 8-22 6-21 4-6 1-18 1h-26l-23-2-25-6-16-6-16-8-11-6-11-8-15-15-11-14-7-11-7-15-5-15-4-21-2-20v-26l2-20 6-25z" fill="#F2222F"/>
<path transform="translate(1210,1232)" d="m0 0h7l6 4 4 5 1 3v81l1 2 58 1 7 3 6 7v66l-3 6-5 4-4 1-58 1-2 1v114l3 8 5 5 3 1h12l15-4 17-6h7l7 4 3 5v70l-4 8-5 4-18 6-28 6-11 2h-41l-23-4-18-6-12-7-7-6v-2l-4-2-9-13-5-14-3-12-2-23v-74l-1-60-1-1h-42l-6-3-5-6-1-2v-67l2-2v63h3v3h6l3-2v3l3 1v2l5-1 6 3 1 3-1 3h27l3 5 2 55 1-12 2-6h-2l-1-15 2-2 1-10 3-1v2h2l2 10 2 11-1 5 1 5-1 3 2 6-2 9 1 12-1 10 1 4v30l2 21-1 7 1 2v9l2 2 1 9 2 2-3 3 4 8v2h2v3h3l-3-9h3l2 6h4l-1 3-3 1-1 2 6 2 2 4 5 1 7 2 6 6 1 2 13 2 6-1 7 3 16 1h19l21-2 7-1 12-4 5-2 7-1 15-2-1-4h2l1-37v-11l-1-16-5 1v-2l-20 8-2 1h-10l-1-3-13-2-4 1-10-6-5-7-2-11v-104l2-9 9-4 15-4h13v2l5-1 9 1-1 3h2v-2l13 2v-3l4-1 2-8v-58l-3-4v-2h-2v-2l-4-2-13-1-5 1-41-1-4-4v-46l1-31-1-9h-2l-4-5-7-1-17 2-14 3-37 6-15 3h-8v-1l62-11z" fill="#F2222F"/>
<path transform="translate(355,1220)" d="m0 0h125l9 4 4 5 8 15 12 26 9 20 12 26 12 25 13 28 5 11 7 16 15 30v2h3l2-6 8-18 6-13 1 3-6 14-5 10-3 10-3 3-4-1-4-4-9-19-3-7-5-10-5-12-6-13-4-8-3-7-4-9-5-12-10-20-4-10-2-3-3-10-5-10v-3h-2l-23-46-5-2-10-2h-118v3h-3l-1 6 1 3-1 3 1 3 2 1 1 5 1 3 2 2 2 10 3 2 2 6 2 1 2 7 2 2v3h2l1 4 2 4v3l3 1 3 7 2 5v3l3 1v4h2l5 12 3 6 3 7v2h2l2 8h2l2 6h2l3 8 3 6v4h3l2 5 3 7 2 1 1 7 2 1 4 9v2h2l2 8h2v4l5 1 3 3v2l2 1 1 4 3 2 3 10 3 3v2h2l14 28v2h2l4 8 8 20 1 6 3 4v5l4 1v8l4 2 6 13 3 6 3 3 3 7 3 4 2 5 3 6 3 5 4 8 3 8 3 7v3h2v2l3 1 4 9 2 1v2h3v2l2-1h6l7 1 9 1 18-1 10 1 6-1 3 1 4-3h3l2-4 4-1 2-5 3-2h3l2-7 4-1v-7l3-1 1-9 3-3 2-7 2-1 1-3 4-1-1-3 1-5h3l1-11 3-1 2-6 2-2 2-7 2-2 3-10 2-4h2l2-8 6-8 1-1 1-7 5-6 1-4h2v-3l4 1v-2h-3l1-4 3-3 2 1 2-1-1-3 3-1 3-5 1 2-18 35-9 20-10 19-10 21-10 18-10 23-10 18-3 6-6 6-7 2h-68l-10-3-6-7-11-22-9-20-11-22-9-17-10-21-6-12-7-16-10-19-12-24-11-23-18-37-10-19-8-16-8-17-11-23-29-58-8-18v-10l3-5z" fill="#F2222F"/>
<path transform="translate(331,1523)" d="m0 0h29l12 3 12 6 10 8 10 12 3 4 14-3 5 1 2 2v4l-16 5 4 15v23l-4 14-6 12-6 8-7 8-11 7-10 5-13 3-9 1h-10l-15-2-10-4-12-8-9-8-8-11-7-14-3-10-1-16 2-13 5-13 6-10 9-11 10-8 12-7zm4 13-13 4-11 7-9 9-9 13-4 13v20l1 4h2l1 6 6 12 9 11 10 8 21 5h15l12-3 10-5 5-2v-2h2l7-8 6-10 5-15 1-6v-11l-4-16-6-11-8-9-13-9-10-4-5-1z" fill="#090808"/>
<path transform="translate(1328,842)" d="m0 0 4 1 5 5v5l3 1v3h-2l-2 7h-3l-5-8v3l7 11v10l-3 11-11 3-5 5-5 4h-5l-3-2-7 1-15 6h-5l-6-5-18 3-4 2-5-1v-2h-3l-1 3h-6l-6-5-2-4-7-3-2-3-1-8-3-4v-6h9l10 2 9-3 11-10 11-7 2-1h7l11 7 4 1h9l10-3 6-3 5-4 7-9z" fill="#FDFDFD"/>
<path transform="translate(1011,860)" d="m0 0 8 1 5 1 10-2h7l8 4 5 4 7 4 1 1h13l6 3 1 1v9l-2 8-4 6h-4l-3-3-2 6h-12l-4-1-2 5h-4l-3-2-7 1-8 3-7-1-8-2v-2h-10l-6 1h-20l-3-2v-3h-11l-7-9-3-3-1-5v-8l3-5 6-5 7 1 5 2 6-1 3-2h8l9 5 11-9z" fill="#FDFDFD"/>
<path transform="translate(671,673)" d="m0 0h8l16 5 10 6 10 9 7 10 4 9v30l-7 4h-2v2l-10 4-14 9-14 10h-2l1-5-6 2-7 3h-5l-1-2 6-17 1-5-6 5-6 3-9 2h-5l-2-3 13-10 9-10 8-16 2-7v-26l-3-5 1-5z" fill="#FDFDFD"/>
<path transform="translate(1071,622)" d="m0 0h20l16 3 14 5 11 7 7 7 3 7v11l-4 10-5 6-8 5-12 3h-18l-15-3-12-6-8-7-4-8-1-4v-16l4-11 5-6z" fill="#030303"/>
<path transform="translate(1038,352)" d="m0 0 44 6 25 5 23 6 17 8 10 8 6 8 2 5v11l-2 6v4h19l15 4 10 6 11 9 10 6 6-1v-16l3-8 3-3 3-1h11l12 3 17 8 12 8 13 11 16 17 12 12 12 9 10 9 1 2v13l-7 13-9 10-13 9-16 8-14 5-9 3-11 1h-16l-5-3-7-10-6-10-2-1v16l8 11 4 4-1 2-11-9-4-4-8-1-2-2v-5l5 1 3 2 1-5v-17l-5-5-3-9-3-19-4-9-4-5-11-7-8-2-9 1-12 9-2 1h-8v-2l8-4 13-10h13l11 4 10 9 5 8 4 19 4 13 3 4v2h2v-16l8-16 14-20 1-3v-10l-6-9-6-7v-2l5 1 7 6 4 7 1 4v9l-4 10-9 13-8 12-2 6v15l3 8 12 16 2 5h14l15-2 14-5 8-4 15-9 10-7 3-1v-2l5-4 5-10 1-4v-10l-10-9-13-10-13-12-8-8v-2h-2l-12-12-18-12-16-8-9-2h-7l-6 2-1 21-3 5-5 2-9-2-11-8-10-9-10-5-7-1h-28l-1-3 5-14-1-10-3-5-8-9-16-8-16-5-23-5-37-7-17-3-5 8-6 12-3 9-1 13 3 18 7 20 12 28 3 8 2 1v2h2l3-3 11-7 20-9 16-8 15-8 10-7 2-5v-13l-7-8 2-1 6 4 4 5v13l-4 7-8 7-13 8-23 12-1 2 9-2 11-3 5-5 10-4 11-1 9 3 1 4-2 2v-2l-7-2h-8l-11 4-8 7-4 4-3-1 1-2-7 2-10 7h-3l4-6-1-5-6 1-12 6-14 10-3-1-13-30-10-25-4-18-1-6v-12l4-16 6-11 6-8z" fill="#362C2E"/>
<path transform="translate(1055,576)" d="m0 0 3 1-4 4-7 5-17 4-17 10-13 10-8 9v14l-1 1 2 1 2-5 13-13 5-1-1 4-8 7-9 13-3 9 1 20 3 12 1 18h2l2-4 9-12 9-8 8-3 14 2 19 2v4l-6 1-14-2-8-1-4 6-4 10-1 8 2 16 8 15 4 13 2 9 1 20 5-5 4-5h2l1-3h2l2-5 5-12h3l-1 9-4 8v8l-2 4v2l9-4h6v-2l8-3 11-9 9-13 3-3v6l-7 11-8 7-1 3h6l-3 2-12 2-4 9-3 5-4 5-4 7h6l1 3-5 9h-2l-2 4-4 6v3l5 2 11 9 11 12v2h2l9 12-2 3-5 1 1 6-4 7-3-1-4-13-6-9 4-4h2l-4-7-13-13-7-4-8-1-6-3-1-2-7-3-6-1-1 3h-6v2l6 2-1 3-12 1-19 2-5 2-12 2 6-7 9-3h18v-5l-5-2-5-3-2-3v-3l6 1 5 4 4-2 13-2 7 1 8 5 4 4v2l5 1 7-9 4-8-2-2-4-2 2-4 12-16 2-5-10 2-2 1h-6v-5l1-4-7 4-8 9-4 1 2-8v-12l-2-16-4-12-8-16-3-12v-14l1-11-6 3-10 11-7 8-6 4h-2l1-4 2-4v-14l-4-20-1-18-1-7v-17l4-10 6-8 10-8 15-9 21-9 11-4z" fill="#363536"/>
<path transform="translate(1508,1265)" d="m0 0h13l17 2 19 5 25 12 14 9 9-3h8l6 3 6 7 2 6-1 8-6 8-7 5-9 1-8-4-4-5-3-7v-8l-9-6-22-11-15-5-20-4h-22l-18 4-14 7-13 10-10 8-4-1-5-4 1-4 7-8 18-13 11-5 19-5z" fill="#090808"/>
<path transform="translate(951,466)" d="m0 0h10l4 4 2 8v12l-2 7-2 11-4 12-13 23-3 1-2 2-3-4-1-5-2-1-4-7-9-7 4-3h2l-2-6-5-6-9-4 1-5h2l-2-5-10-4v-2l-3-1 18-10 19-7z" fill="#F5A09D"/>
<path transform="translate(728,450)" d="m0 0 11 1 13 4 8 4 10 7 11 9 10 7v2h-10l-10 1 1 5 3 3v2l-16 8-3 2 2 6v4l-4 5h-2l-2 5-5 10-4-2-5-8-6-14-5-22-1-11v-19z" fill="#F5A09D"/>
<path transform="translate(845,708)" d="m0 0 2 2 4 18 2 4 6-2 14-7 10-1 12 3 8 4 8 7 5 8v16l-4 8-5 4-9 1-5-1h-12l-5-2-1-3-7 2-8-1-5-5-2-3v-7l1-5-6-1-1-3 2-5-1-9-2-6-2-4-4-2v-3h3l1-6z" fill="#070606"/>
<path transform="translate(338,1563)" d="m0 0h16l10 5 8 9 3 8v14l-5 10-7 7-11 5h-11l-8-3-6-4-8-9-2-5v-16l5-10 5-5 7-5z" fill="#040304"/>
<path transform="translate(844,540)" d="m0 0 5 1v2h3l1 13-2 4h-2l1 3 9 1-2-7 1-8 2-2 1-4h2l1-3 4 2 3 4 2 6v9l-2 5 11 6 2 4-1 7-7 10-9 7-11 6-8-1-13-7-9-7-6-7-2-5 1-7 5-4 10-3 1-1v-12l1-3h3l1-5z" fill="#7C7D7D"/>
<path transform="translate(1566,1329)" d="m0 0 7 1h4l2 4-3 6h-2l5 13 1 5v13l-5 13-8 13-12 7-3 1h-9l-8-5-4-6-1-4v-11l9-19 9-10 8-8 1-6 8-6z" fill="#F22430"/>
<path transform="translate(1122,1103)" d="m0 0h19v24l-19 8-19 5-8 1h-19l-9-2-5-4-2-4 1-9 4-6 5-4 14-5 13-2z" fill="#FDFDFD"/>
<path transform="translate(1605,1388)" d="m0 0 16 1 6 3 5 5v11l-3 8-6 8-8 9-8 7-8 1h-15l-9-4-3-5v-14l4-9 5-5 9-8z" fill="#F22431"/>
<path transform="translate(1609,1447)" d="m0 0h10l16 5 8 5 4 5 2 10-3 7-9 8-13 4h-18l-12-4-7-4-1-2-6-3 2-15 2-4 9-7 4-1z" fill="#E12029"/>
<path transform="translate(1492,1334)" d="m0 0h8l6 3 7 8 6 13 2 14v10l-5 10-9 8-3 1h-9l-10-9-5-10-3-12v-12l4-13 4-6 5-4z" fill="#E12029"/>
<path transform="translate(1243,415)" d="m0 0h11l12 3 17 8 12 8 13 11 16 17 12 12 12 9 10 9 1 2v13l-7 13-9 10-13 9-16 8-14 5-9 3-11 1h-16l-5-3-7-10-6-10-2-1v16l8 11 4 4-1 2-11-9-4-4-8-1-2-2v-5l5 1 3 2 1-5v-17l-5-5-3-9-3-19-4-9-4-5-11-7-8-2-9 1-12 9-2 1h-8v-2l8-4 13-10h13l11 4 10 9 5 8 4 19 4 13 3 4v2h2v-16l8-16 14-20 1-3v-10l-6-9-6-7v-2l5 1 7 6 4 7 1 4v9l-4 10-9 13-8 12-2 6v15l3 8 12 16 2 5h14l15-2 14-5 8-4 15-9 10-7 3-1v-2l5-4 5-10 1-4v-10l-10-9-13-10-13-12-8-8v-2h-2l-12-12-18-12-16-8-9-2h-14z" fill="#312F30"/>
<path transform="translate(902,1407)" d="m0 0h13l9 6 6 10 4 11 1 10-1 1h-49l-4-1 1-8 6-16 6-8 5-4z" fill="#FDFAF9"/>
<path transform="translate(1190,517)" d="m0 0h8l10 4 9 7 4 6v3l-5-1 1 12 5 10 8 6 8 2 4 6-9 1-8-7-9-8-3-5v-2h-2l-2 8-4 4-7 1-6-4-4-8-1-8 2-7 6-5 2-1h6l5 4 2 8 2-7v-6l-4-5-8-4-6-1-5 2-6 10-6 16-3 10-6 10-8 10-12 13-5 4-4-1 4-4 1-3-1-15-7-21-1-2-3-1-2-5 1-5 2-7 5 2 3-6h2v8l-2 8v7l6 22 1 12 5-5 8-9 7-11 6-15 7-17 6-8z" fill="#292527"/>
<path transform="translate(741,607)" d="m0 0 9 1 3 4 52-1 8 1v4l-2 1-37 1-34 3-14 3v2l-32 16-2 6h-1v-22l-2-2h-4l-1-4 3-12h1v8l31-7 6-1z" fill="#2B2729"/>
<path transform="translate(1071,780)" d="m0 0 1 2-2 7-3 3-4 7h6l1 3-5 9h-2l-2 4-4 6v3l5 2 11 9 11 12v2h2l9 12-2 3-5 1 1 6-4 7-3-1-4-13-6-9 4-4h2l-4-7-13-13-7-4-8-1-6-3-1-2-7-3-6-1-1 3h-6v2l6 2-1 3-12 1-19 2-5 2-12 2 6-7 9-3h18v-5l-5-2-5-3-2-3v-3l6 1 5 4 4-2 13-2 7 1 8 5 4 4v2l5 1 7-9 4-8-2-2-4-2 2-4 12-16z" fill="#2F292B"/>
<path transform="translate(702,576)" d="m0 0h6l3 5 14 1 4 1 19 2 14 3 2 1v2l10 3 17 3 18 4 6 4v2l-4 1-22-5-25-4-10-1h-16l-3 1-20 2-24 4h-2l1-5 8-12 7-9z" fill="#2A2729"/>
<path transform="translate(1297,1409)" d="m0 0 1 2-3 3-8 3-57 1v98l-1 8 1 9 4 6 6 3h9l21-5 10-4 3-1h7l8 5 4 6 1 10v62l-3 6-4 5-7 3-11 4-16 4-20 4-16 2h-24l-24-3-19-5-10-4-11-7-13-13-6-8v-5l4 5 8 11 8 7 11 7 16 6 19 4 8 1h41l31-6 21-6 8-4 4-6 1-3v-70l-2-5-4-2-3-1h-7l-20 7-12 3h-12l-6-3-4-5-2-7v-114l3-2 58-1 7-3z" fill="#F4B7A4"/>
<path transform="translate(1485,1417)" d="m0 0h5v1l9 3 4 2 1 2 6 2 2 3 3 1v7h2l3 7 1 4v10h-1l-3-11-3-5v-2h-9l-1 19h-2l-6-11-2-2-10-1 2-6-4 2-3 4-1 4v16l1 9h-2l-2-6-1-14-2-1 1-12-2-3-3-5 1-3-7 1-4 4-2-1-1 3-3 1 2-7 14-9 10-5z" fill="#F22834"/>
<path transform="translate(844,540)" d="m0 0 5 1v2h3l1 13-2 4h-2l1 3 9 1-2-7 1-8 2-2 1-4h2l1-3 4 2 3 4 2 6v9l-2 5 11 6 2 4-1 7-7 10-9 7-11 6-8-1-13-7-9-7-6-7-2-5 1-7 5-4 10-3 1-1v-12l1-3h3l1-5zm-6 28-12 4-5 5 3 9 8 8 17 6h7l12-7 6-5 4-8-1-5-5-4-6-3z" fill="#292628"/>
<path transform="translate(1210,1232)" d="m0 0h7l6 4 4 5 1 3v81l1 2 58 1 7 3 6 7v66l-3 6-5 4-4 1-58 1-4 1 1-3 8-3 15-4h13v2l5-1 9 1-1 3h2v-2l13 2v-3l4-1 2-8v-58l-3-4v-2h-2v-2l-4-2-13-1-5 1-41-1-4-4v-46l1-31-1-9h-2l-4-5-7-1-17 2-14 3-37 6-15 3h-8v-1l62-11z" fill="#F32330"/>
<path transform="translate(435,1423)" d="m0 0 3 4 9 19 30 60 6 14 10 19 9 19 10 19 10 21 11 23 4 6 4 3 8 2h68l8-3 6-7 16-32 6-13 10-19 10-21 10-19 6-13 12-25 10-19 3-5 1 2-8 16-11 23-7 15-16 33-15 30-7 15-14 29-7 10-5 4-5 2-6 1h-65l-8-2-5-5-4-5-3-5-2-2-2-6-11-24-11-23-10-19-8-16-9-19-11-23-26-52-4-9z" fill="#F5ABA0"/>
<path transform="translate(357,808)" d="m0 0h125l8 3 5 5 7 10 11 18-1 2-7-10-8-13-5-6v-2l-10-3h-121l-8 2-3 1-1 2h-2l-1 12-1 129-1 245h-1v-381l2-6 5-5z" fill="#737374"/>
<path transform="translate(1600,1396)" d="m0 0h9l2 1 1 5 4-2 3 1 3 4 3 2-1 7h-2l-1 4-6 8-10 7-6 3h-2l-1 2-1-5-9-4-1-2 7-3v-4l-6-2v-2h-3l-1-4 1-2 7-2 4-2-1-5 4-2h3z" fill="#E12029"/>
<path transform="translate(1394,1366)" d="m0 0 5 5 2 4-1 8-7 25-5 24-3 17-3 7-5 3-3-1 2-29 3-17 6-22 4-12z" fill="#0E0D0D"/>
<path transform="translate(1103,506)" d="m0 0 3 2 1 3v10l-3 7-3 5-5 3-9 1 1 3v7l-8 8-4 5-5 2h-5l3-3 8-6 2-4-15 6h-3l1-4 6-9 3-9 1-6-18 2-7 1h-12l-2-4 3-3 13-2h8l1 3h18l1 2-4 17-2 3 7-3 6-5-1-14 2-4h6l3 1 2-11-3-1 3-2z" fill="#332F31"/>
<path transform="translate(964,570)" d="m0 0 6 4 5 8 6 12v2l-28-1-42 3-17 3-14 3h-6l1-4 11-4 16-3 28-7 6-2 18-3 16-1-2-3v-3l-4-2z" fill="#2E2729"/>
<path transform="translate(1443,1443)" d="m0 0 4 1-2 3 4 2-4 8h-6l-1 8h4l1 15-2 4 3 6 6 5 4 1v2l5 1v3l4-1 3 1 2 3h3l1 2 9 4 2 5 8 6 4 4 4 10 6 4v2l10 3 1 2-2 2 4 2h-7l-10-4-6-4-9-11-8-10-9-9-24-15-8-8-4-9v-17l5-13z" fill="#F12531"/>
<path transform="translate(945,606)" d="m0 0h24l5 2h1l1 21h-1v-7l-14-2-29-6-28-1 1 4h10l-4 7-6 1v-4l-6-2v-6h-23l-5-1v-3l6-2z" fill="#2D2729"/>
<path transform="translate(776,808)" d="m0 0h128l7 3 5 4 2 5v380h-1l-1-271-1-108-2-6-9-4-129 1-1 1h-5l4-4z" fill="#737475"/>
<path transform="translate(1576,1352)" d="m0 0 3 1 1 5v13l-4 11-6-2v2l-3 1 1 5-2 2-3 1-1 2h-7-4l-4-3-3-2 1-2h-2l-2-3v-5l4-4 12-8h2l2-5 7-3 7-2z" fill="#E12029"/>
<path transform="translate(1102,496)" d="m0 0 9 1 4 5 1 2v13l-2 10-5 19-1 12 1 6 3-3 11-14 7-11 3-8h3l1 4 2 1h-3l-3-2-1 7-1 5 1 5 4 1-3 1-2 4h-2l-1-4-6 3-6 10-3 8h-2v2l-5-2-2-6v-16l4-20 3-11v-11l-1-5-2-1h-10l1 2 5 2-1 2-9 2 2 1v8l-2 4-9-2-1 9 1 9-2 1-1-7v-16l-3-4 1-4 10-7 8-4z" fill="#515154"/>
<path transform="translate(1037,1513)" d="m0 0 3 1-5 2-40 1h-104l2 5 6 7 12 6 15 4 9 1h23l21-3 16-4 13-4h9l6 4 6 9 11 27 6 15 1 8-4 11-4 6-4 1 4-5 4-11v-11l-11-26-5-13-6-10-4-2-11 1-23 7-13 3-8 1h-29l-19-4-13-6-6-5-8-11 1-4z" fill="#F4B2A2"/>
<path transform="translate(1195,468)" d="m0 0 11 1 10 5 7 6 5 9 3 16 3 13 2 4v3l-4-2-6-7-8-21-5-8-6-3-5-1h-31l-1-2 10-3 12-9z" fill="#FDFDFD"/>
<path transform="translate(1124,405)" d="m0 0 6 2 6 7v13l-4 7-8 7-13 8-23 12-1 2 9-2 11-3 5-5 10-4 11-1 9 3 1 4-2 2v-2l-7-2h-8l-11 4-8 7-4 4-3-1 1-2-7 2-10 7h-3l4-6-1-5-6 1-12 6-14 10-3-1-4-9v-5h3l2 6 2 1v2h2l3-3 11-7 20-9 16-8 15-8 10-7 2-5v-13l-7-8z" fill="#1E1B1D"/>
<path transform="translate(1243,415)" d="m0 0h11l12 3 17 8 12 8 13 11 16 17 12 12 12 9 10 9 1 2v13l-7 13-9 10-13 9-16 8h-6l1-3 7-3 15-9 10-7 3-1v-2l5-4 5-10 1-4v-10l-10-9-13-10-13-12-8-8v-2h-2l-12-12-18-12-16-8-9-2h-14z" fill="#2F2B2D"/>
<path transform="translate(1492,1334)" d="m0 0h8l5 2-3 1h-2l-2 5-2 1-1 5-3-1h-4l-2-1-1 5-1 6 1 4 1 1v16l4-1 1 6 3 1 1 3 3 1 4 5h4v2l5-2 3-1 2-5 3-9 1-6h1v10l-5 10-9 8-3 1h-9l-10-9-5-10-3-12v-12l4-13 4-6 5-4z" fill="#F22431"/>
<path transform="translate(1055,576)" d="m0 0 3 1-4 4-7 5-17 4-17 10-13 10-8 9v14l-1 1 2 1 2-5 13-13 5-1-1 4-8 7-9 13-3 9 1 20 3 12v15h-1l-1-9h-2l-4-20-1-18-1-7v-17l4-10 6-8 10-8 15-9 21-9 11-4z" fill="#3B3336"/>
<path transform="translate(1235,705)" d="m0 0 1 4-5 13-6 8-8 7-5 5v8l5 16 12 20 7 9 5 8 5 10 5 7 5-2 13-6 11-3 6 2v1l-10 2-8 4-13 5-6 2-2-1-3-7-5-7-5-9-7-9-8-10-2-5-5-9 1-4h-2l-6-12-5-1-4 1v2l-4 2-3-1 5-5 10-7 9-7 13-13 5-8 3-9z" fill="#392E30"/>
<path transform="translate(671,673)" d="m0 0h8l16 5 10 6 10 9 7 10 4 9v30l-4 2 1-7-2-19-4-15-8-11-10-7-8-4-8-3h-8l-1 4 2 9v9l-6 25-4 9-4 5h-2l-2 4-11 11v2l-7 1-2-3 13-10 9-10 8-16 2-7v-26l-3-5 1-5z" fill="#EFC39C"/>
<path transform="translate(278,880)" d="m0 0h1l1 71v155l1 127-2 2v-14l-1-10-1-161v-102z" fill="#F2E2B0"/>
<path transform="translate(1337,854)" d="m0 0 2 3v11l-3 20-3 5-12 6-6 5-7 3-10-2-17 7-6-1-7-5-6 2-11 3h-13l-13-4-6-4-7-8-3-8v-10l2-1v5h2l3 4 2 10 8 4 3 5 4 3h6l1-2h3l1 2 6-1 12-3 8-1 6 5 7-1 15-6 7 1 1 1 7-1 6-5 4-4 9-1 2-11v-10l-8-13 2-2 4 5 1 4h3z" fill="#2B2A2B"/>
<path transform="translate(1137,373)" d="m0 0 6 2 11 7 8 9 3 7v11l-2 6v4h19l15 4 10 6 11 9 10 6 6-1v-16l3-8 3-3 2 1-1 1 2 2-2 1-1 21-3 5-5 2-9-2-11-8-10-9-10-5-7-1h-28l-1-3 5-14-1-10-3-5-8-9-16-8z" fill="#3C3536"/>
<path transform="translate(1463,910)" d="m0 0h19l13 5 11 7 7 6 9 12 1 2v11l-8 31-12 45-3 4 2-9 11-44 6-23 1-6v-9l-6-9-9-9-14-8-9-3h-19l-10 2-16 8-14 12-9 7-2 4h-2l-2 4-2 3h-2l-2 5-4 4-3-1-3-9-2-8-6-17-2-5-5-2-3-1-67-1v-1l28-1h40l6 3 4 5 5 12 7 22h2l10-13 4-5 8-7 15-12 15-8z" fill="#777172"/>
<path transform="translate(387,743)" d="m0 0h52l50 1 15 3 11 4 1 2-13-3-10-2-12-1-64-1-13 1h-52l-14 2-5 2-6 3-7 3-5 2v2l-6 4-7 6-2 4h-2l-2 4-7 8v-3l7-10 12-12 13-9 11-5 10-3 7-1z" fill="#F2E2B0"/>
<path transform="translate(1217,576)" d="m0 0 6 2 6 5 5 1-1-6h3l7 8 4 5-6-1-6-3h-3l-1 6-2-2-2-5-4-1-3 7v27l4 8 9 8 8 7 5 7 1 3v21l-2 6h-1v-21l-3-9-10-11-10-8-13-8-9-8-2-4v-7l3 3 4 6v2l4 2 4 1v3h4v-25l1-7 2-4-1-4z" fill="#232021"/>
<path transform="translate(1102,742)" d="m0 0h1v6l-7 11-8 7-1 3h6l-3 2-12 2-4 9-3 2v-3h-2l1-5-10 2-2 1h-6v-5l1-4-7 4-8 9-4 1 2-8v-22l2-3 2 16v8l5-5 4-5h2l1-3h2l2-5 5-12h3l-1 9-4 8v8l-2 4v2l9-4h6v-2l8-3 11-9 9-13z" fill="#3E3A3C"/>
<path transform="translate(1084,881)" d="m0 0 2 2v10l-3 8-5 4-21 4-13 3h-10l-12 1-7 1-13-4v-2h-5v-3l5-2h8l2 1v2l11 2 7-1 7-3 7 1 4 2 3-5h16l2-6 3 2v2l4-1 4-7 1-6h2z" fill="#424042"/>
<path transform="translate(1126,452)" d="m0 0h8l5 2 1 1 2 17 3 7-5-1-5-8-3-6-1-1h-9l-9 4-8 6-10 3h-12l2-4 11-7h5v2l4-2 8-8 9-4z" fill="#FDFDFD"/>
<path transform="translate(1609,1447)" d="m0 0h10l16 5 1 5-12-1v5l-5 1-2-1-8 2-6-2-2 1-4 1-1-3-2-1 5-5-6 2-2 4-4 4-2 8 1 8-5-1-1-2 2-14 2-4 9-7 4-1z" fill="#F22430"/>
<path transform="translate(725,554)" d="m0 0 12 2 21 5 7 2 5 2 2 4h-16l-13-1h-14l-15-1-6-1 5-5z" fill="#2A2729"/>
<path transform="translate(513,1274)" d="m0 0h2l7 16 12 26 12 25 13 28 5 11 7 16 15 30v2h3l2-6 8-18 6-13 1 3-6 14-5 10-3 10-3 3-4-1-4-4-9-19-3-7-5-10-5-12-6-13-4-8-3-7-4-9-5-12-10-20-4-10-2-3-3-10-5-10z" fill="#F32330"/>
<path transform="translate(950,463)" d="m0 0h11l5 3 2 5v26l-4 16-8 18-6 10-7 9-4-1-3-5-4-10-7-8-4-2-1-4 5-3-3-6v-2l-6-2-6-3 1-4 1 3 5 1 6 4 5 6v5l-5 3 8 6 5 7 5 10 2-2h3l2-5 8-14 5-13 2-6 2-11 1-4v-12l-2-8-3-3h-10l-17 4-16 6-13 7h-2v-2l23-12 19-6z" fill="#743137"/>
<path transform="translate(797,611)" d="m0 0 16 1v4l-2 1-37 1-34 3-14 3v2l-32 16-2 6h-1v-17l5-3 26-6 14-3 22-3 49-2-11-1z" fill="#292628"/>
<path transform="translate(1141,527)" d="m0 0h2v8l-2 8v7l6 22 1 12 5-5 8-9 7-11 5-10 2-1v8l-5 9-9 12-14 15-4 3-4-1 4-4 1-3-1-15-7-21-1-2-3-1-2-5 1-5 2-7 5 2z" fill="#282527"/>
<path transform="translate(1512,1409)" d="m0 0 11 2 15 3 6 3 8 3 5 5v2h2l4 5 4 8v5h2l1 9 3 8v19l-3 11h-1l1-17-3-19-5-13-3-6v-2h-2l-3-3-7-2v-2l-3-1 1-2-1-1v-2h-2v-3l-5-1-16-4h-16l-11 1-7 1v-2l6-3z" fill="#F32430"/>
<path transform="translate(788,1565)" d="m0 0 5 5 11 14 13 13 10 7 22 12 21 8 25 6 23 2h26l18-1 23-4 19-5 15-5 14-7h2v2l-19 9-23 7-25 5-22 2h-31l-25-3-21-5-20-8-23-12-13-11-6-5-7-8-5-6v-2h-2l-5-7z" fill="#F4B9A4"/>
<path transform="translate(357,808)" d="m0 0h125l8 3 5 5 7 10 11 18-1 2-7-10-8-13-5-6v-2l-10-3h-121l-8 2-3 1-2-1v2l-2-1 4-4z" fill="#717172"/>
<path transform="translate(334,1534)" d="m0 0h23l8 2v2h6l9 5 5 3 1 2 4 2 1 4h2l8 17 3 8 1 5v15l-3 12-4 10-7 11-7 6-9 6-11 3-4-1 13-5 7-3 1-2h2l2-4 7-8 6-14 3-13v-11l-4-16-6-11-7-8-13-9-10-4-5-1h-25v-2z" fill="#4B4648"/>
<path transform="translate(724,595)" d="m0 0h27l23 3 27 5h3l-22-5-6-1v-2l11 1 22 5 6 4v2l-4 1-22-5-25-4-10-1h-16l-3 1-20 2-24 4h-2l1-5 3-4z" fill="#292628"/>
<path transform="translate(1080,475)" d="m0 0 1 2-5 10-4 5-3 6-9 10-3 2 1 1 9-5 4-2h4l-2 4-8 6-6 5h-2v-2l-12 2-2 1h-12v-3l16-7 13-9 11-15 6-8z" fill="#332E30"/>
<path transform="translate(1071,622)" d="m0 0h20l16 3 14 5 5 3-4 1-9-4v-2h-7l-13-2-7-1h-14l-6 3-4 5-3 7-1 3v14l4 9 7 8 11 5 12 3h33l-3 2-9 2h-18l-15-3-12-6-8-7-4-8-1-4v-16l4-11 5-6z" fill="#565152"/>
<path transform="translate(1432,1025)" d="m0 0 2 1-14 14-6 8-1 80v68l-1 9h-1l-1-90v-66l4-7 11-12 3-3z" fill="#68686A"/>
<path transform="translate(1103,506)" d="m0 0 3 2 1 3v10l-3 7-3 5-5 3-6-1-4-4-1-2v-9h6l3 1 2-11-3-1 3-2z" fill="#292628"/>
<path transform="translate(1556,1487)" d="m0 0h3v11h-2l-3 9-2 1-1-3h-3l-5 2h-3v2l-4 3v3l-7-2-1 2-7-1-7 1 2-4 3-1 2-4-2-1 16-1 8-5 5-7z" fill="#F02531"/>
<path transform="translate(1119,1598)" d="m0 0 4 5 8 11 8 7 11 7 16 6 19 4 8 1h41l31-6 19-5 3 2-9 3-16 4-20 4-16 2h-24l-24-3-19-5-10-4-11-7-13-13-6-8z" fill="#F4B7A4"/>
<path transform="translate(1228,1244)" d="m0 0 2 4-1 75 1 3h47l15 1 8 8v2l2 1 1 64-2 6-3 1 1-5v-66l-5-6-7-3-58-1-2-3v-40z" fill="#F5ABA0"/>
<path transform="translate(504,1251)" d="m0 0 3 3 14 29 9 21 10 21 7 15 5 10 9 19 12 27 13 26 2 3 1-4 7-14 9-19 1 3-9 20-7 15-1 2h-3l-16-32-10-23-13-28-7-14-11-23-8-18-9-20-8-17z" fill="#F4B4A3"/>
<path transform="translate(1283,1532)" d="m0 0h7l8 5 4 6 1 10v62l-3 6-4 5-7 3h-5l4-3 7-4 4-8v-70l-2-5-4-2-3-1h-7l-20 7-12 3h-12v-2l20-2v-2l11-3 10-4z" fill="#F5ABA0"/>
<path transform="translate(776,808)" d="m0 0h128l-1 3-128 1-1 1h-5l4-4z" fill="#69696B"/>
<path transform="translate(652,1686)" d="m0 0 3 1-14 7-14 4-6 1h-26l-51-1-15-3v-1h65l12 1h17l14-2z" fill="#F2E2B0"/>
<path transform="translate(1210,876)" d="m0 0h1v5h2l3 4 2 10 8 4 3 5 4 3h6l1-2h3l1 2 6-1 12-3 8-1 6 5-1 3-4-2-5-2-10 4-5 1h-13l-13-4-6-4-7-8-3-8v-10z" fill="#423F41"/>
<path transform="translate(954,588)" d="m0 0h24l1 5-39 1-31 3-28 5-4-1 7-3 26-5 31-4z" fill="#646567"/>
<path transform="translate(1121,688)" d="m0 0h15l8 5 4 7 1 5v12l-3 18v22l-4-1-4 2 1-2 3-25 2-14v-12l-3-8-5-4-9-1-6-1z" fill="#676567"/>
<path transform="translate(1109,1417)" d="m0 0h1l1 60v74l1 13v10l-2-1 1-8h-2l-1-10v-95z" fill="#F4B5A3"/>
<path transform="translate(1235,705)" d="m0 0 1 4-5 13-6 8-8 7-5 5v8l5 16 1 2h-4l-1-3-2-1-6-12-5-1-4 1v2l-4 2-3-1 5-5 10-7 9-7 13-13 5-8 3-9z" fill="#393032"/>
<path transform="translate(1244,824)" d="m0 0 5 1-2 4-4 2-6 2-10 6-7 7-3 5-1 11 6-4 8-8 3-1 1 4-6 5-5 5-6 4h-2v2h-3l-1-3 1-14 5-10h2v-2l20-15z" fill="#292628"/>
<path transform="translate(1254,440)" d="m0 0 5 1 7 6 4 7 1 4v9l-4 10-9 13-8 12-2 1-2 5-2-1 3-9 7-12 8-10 4-8v-10l-6-9-6-7z" fill="#1E1C1D"/>
<path transform="translate(698,592)" d="m0 0h47l20 2 36 7 6 2v1l-12-1-34-6-10-1h-58l2-3z" fill="#646567"/>
<path transform="translate(1191,464)" d="m0 0h13l11 4 10 9 5 8 1 9v11h-1l-3-16-5-9-11-8-10-3-9 1-12 9-2 1h-8v-2l8-4z" fill="#383638"/>
<path transform="translate(1129,1689)" d="m0 0 7 1 30 7 27 4 47 1-4 2-10 1h-28l-30-3-20-5-19-7z" fill="#F2E2B0"/>
<path transform="translate(1055,576)" d="m0 0 3 1-4 4-7 5-17 4-17 10-13 10-8 9-3-2 6-9 8-7 18-11 21-9 11-4z" fill="#363234"/>
<path transform="translate(933,622)" d="m0 0h7l20 7 3 2 5 1 6 3 1 2-4-1-4-2h-3l-3 10-2-3-13-6-11-7-3-3z" fill="#2A2729"/>
<path transform="translate(840,643)" d="m0 0 10 5 1 7v2h-2v2l-4 2h-9l-7-3v-3h-2l1-4 5-4 1-2z" fill="#F39F9C"/>
<path transform="translate(1197,533)" d="m0 0 7 1 2 1 2 7v15l-4 5h-7l-5-4-2-6v-5l3-1 8 1h2l-1-9-3-1v-2l-3-1z" fill="#010101"/>
<path transform="translate(769,613)" d="m0 0h39l-1 2-49 2-27 4-35 8-5 2-1-8h2v2l36-7 13-2 21-2z" fill="#757576"/>
<path transform="translate(1131,448)" d="m0 0 10 2 2 2-1 5-1-2-7-2h-8l-11 4-8 7-4 4-3-1 1-2-7 2-10 7h-3l4-6-1-5-2-2 6-2-1 4 9-2 11-3 5-5 10-4z" fill="#393739"/>
<path transform="translate(949,878)" d="m0 0 2 2 3 9 6 7 2 3 11 1v3l3 1h25l-4 3 5 1v1l-14 1-5 1h-9l-4-5-14-7-7-7-1-2v-10z" fill="#434243"/>
<path transform="translate(527,1613)" d="m0 0h2l7 13 5 4 8 2h71v3l-6 1h-65l-8-2-5-5-4-5-3-5-2-2z" fill="#F4B5A3"/>
<path transform="translate(1493,1435)" d="m0 0h8l6 2v2l4 1-6 1-1 19h-2l-6-11-2-2-10-1 2-6-1-2z" fill="#F2E0AF"/>
<path transform="translate(734,748)" d="m0 0 3 1-12 9-10 9-6 9-5 11-3 13v8l4 6 5 5 5 1-3 4-11-8-4-7v-11l3-13h2l1-7 6-9 9-10 14-10z" fill="#7C7A7B"/>
<path transform="translate(1057,356)" d="m0 0h12l30 5 31 8 7 3v2l-9-1-23-6-37-7-11-2z" fill="#1F1A1B"/>
<path transform="translate(456,1217)" d="m0 0h10l17 2 5 3-3 1-5-2h-125l-5 3-2-1 5-4 4-1h59z" fill="#F4BEA6"/>
<path transform="translate(1357,495)" d="m0 0h1l1 12-7 13-9 10-13 9-16 8h-6l1-3 7-3 15-9 10-7 3-1v-2l5-4 6-11 1-2z" fill="#302B2D"/>
<path transform="translate(879,608)" d="m0 0 59 1 12 2 21 2 2 3-2 1h-10l-32-5h-30l-23-1z" fill="#57585B"/>
<path transform="translate(674,691)" d="m0 0h2v9l-6 25-4 9-4 5h-2l-2 4-11 11v2l-7 1-2-3 13-10 9-10 8-16 2-7v-15l2-3 1 11 1-5z" fill="#F2E0AF"/>
<path transform="translate(1197,531)" d="m0 0h6l5 4 1 8-2-1-1-7-9-1 5 4 1 9-7 1-5-1 1 7 2 5 3 2h7l5-4-2 5-4 2-7-1-5-4-3-7-1-8 2-7 6-5z" fill="#292628"/>
<path transform="translate(1447,1261)" d="m0 0h2v2l-14 9-16 6-12 2-17 2-33-1v-1l47-3 16-4 16-6z" fill="#F2E2B0"/>
<path transform="translate(1348,1295)" d="m0 0 5 5 12 20 1 2v58l-1 10h-1l-1-10v-25l-1-38-4-2-5-8-5-10z" fill="#F2E2B0"/>
<path transform="translate(840,566)" d="m0 0h15l12 1 11 5v2h2v8l-3 6h-2v2l-12 9-7 4-9-1-11-6 2-1 11 4h7l12-7 5-4 4-8-1-5-8-5-2-1h-28l-12 4-4 4 1 6-2-1-1-7 6-5 9-3z" fill="#57585B"/>
<path transform="translate(877,607)" d="m0 0h7v1l-7 2 24 1h28l9 2v1l-34-1 1 4h10l-4 7-6 1v-4l-6-2v-6h-23l-5-1v-3z" fill="#292628"/>
<path transform="translate(1495,916)" d="m0 0 5 2 11 8 10 12 2 4v11l-8 31-12 45-3 4 2-9 11-44 6-23 1-6v-9l-6-9-9-9-10-6z" fill="#7A7576"/>
<path transform="translate(1217,576)" d="m0 0 6 2 6 5 5 1-1-6h3l7 8 4 5-6-1-6-3h-3l-1 6-2-2-2-5-4-1-3 7-1 21h-1l-1 5h-1v-23l1-7 2-4-1-4z" fill="#2E2B2D"/>
<path transform="translate(726,452)" d="m0 0 1 2-2 5v19l2 17 4 16 7 16 4 6 3 1 4-9 3-5h2l-2 5-5 14h-4l-6-8-7-14-5-17-3-21v-20l2-6z" fill="#712C31"/>
<path transform="translate(905,592)" d="m0 0h5v2l-26 5-6 2 14-2 24-4 24-2h40l1 3-28-1-42 3-17 3-14 3h-6l1-4 11-4 16-3z" fill="#292628"/>
<path transform="translate(1529,1448)" d="m0 0 3 3 2 5 5 2v2l4 1v3h2l5 11v4h2v8h-2l-2-9-5-8-9-7-13-3 4-2-2-1 1-8z" fill="#F23139"/>
<path transform="translate(950,463)" d="m0 0h11l5 3 2 5v24l-3 8h-1l1-9 1-4v-12l-2-8-3-3h-10l-17 4-16 6-13 7h-2v-2l23-12 19-6z" fill="#6C3237"/>
<path transform="translate(1133,528)" d="m0 0h3l1 4 2 1h-3l-3-2-1 7-1 5 1 5 4 1-3 1-2 4h-2l-1-4-6 3-6 10-3 8h-2v2l-4-2-1-8 4 1 8-11 8-10 5-10z" fill="#555659"/>
<path transform="translate(1219,645)" d="m0 0 5 1 6 7 4 11 3 10 2 9 3-4h2l-6 18h-2l-1-3-2-16-4-15-4-10z" fill="#454041"/>
<path transform="translate(659,1567)" d="m0 0 1 4-7 14-9 20-10 19-6 7-6 3h-2l1-3 5-3 5-6 16-32 6-13 5-9z" fill="#F4B9A4"/>
<path transform="translate(1566,1329)" d="m0 0 7 1h4l2 4-3 6h-2v3l-17-1-1-4 4-4z" fill="#F2DDAE"/>
<path transform="translate(1081,635)" d="m0 0h13l11 4 9 6 1 1v5h-6l-22-12-6-2z" fill="#FAF7F7"/>
<path transform="translate(1122,441)" d="m0 0 2 1-4 4 2 1 9 1v1l-12 2-8 4h-2l-2 4-11 3-2 1h-7l1-3 15-8 12-6z" fill="#6D6E6F"/>
<path transform="translate(1249,530)" d="m0 0 4 4 12 16v2h14l15-2 10-4 8 1-3 2-18 6-11 1h-16l-4-2 4-1-9-11-6-10z" fill="#333133"/>
<path transform="translate(791,726)" d="m0 0h14l10 4 2 3h-3v-2l-13-2-12 1-10 4-11 8-19 19 2-4 6-9 12-12 11-7z" fill="#737475"/>
<path transform="translate(1556,1517)" d="m0 0 3 1-1 5-11 13-10 8-5 2-6-2 2-2 9-5 6-5 3-5h2l2-5 5-2z" fill="#F22632"/>
<path transform="translate(1033,1610)" d="m0 0h2v2l-19 9-23 7-25 5-22 2h-18v-2l34-2 23-4 19-5 15-5z" fill="#F4B7A4"/>
<path transform="translate(987,836)" d="m0 0h10l-1 2-19 6-7 1-6 3h-4v3l-4 4-2 3h-2v-5l8-8 7-5 8-3z" fill="#2B282A"/>
<path transform="translate(1446,1016)" d="m0 0h7l10 4 6 4 1 3 3 1 3 4v3l6 3h10l5-2 3-3-1 4-5 4-3 1h-9l-8-7-1-4-4-2-7-6-10-3-9 1-7 4-2-1 5-5z" fill="#585657"/>
<path transform="translate(1037,1513)" d="m0 0 3 1-5 2-40 1-88-1v-1l78-1z" fill="#F3C8A8"/>
<path transform="translate(516,753)" d="m0 0 6 2 16 12 8 8 10 15 11 21v2l-4-2-9-17-8-13-6-8-7-6v-2l-4-2-13-9z" fill="#F2E2B0"/>
<path transform="translate(1049,521)" d="m0 0h8l1 3 11 1-3 2-19 3h-12l-2-4 3-3z" fill="#2C282A"/>
<path transform="translate(1364,1535)" d="m0 0 2 3v70l-1 10h2l-2 10h-2v-89z" fill="#F2E2B0"/>
<path transform="translate(1026,410)" d="m0 0h1l3 12 8 20 9 21v2h-2l-1 3-17-41-1-7z" fill="#422D2F"/>
<path transform="translate(1240,416)" d="m0 0 2 1-1 1 2 2-2 1-1 21-3 5-5 2-7-1 1-2-4-2 4-1 6 1 2-1v-16l3-8z" fill="#503E3F"/>
<path transform="translate(1095,505)" d="m0 0h7l1 2-9 2 2 1v8l-2 4-9-2-1 3 1-9 2-6 3-2zm-13 18 2 1 1 14-2 1-1-7z" fill="#403E40"/>
<path transform="translate(560,1370)" d="m0 0 3 4 12 26 11 22 2 3 1-4 7-14 9-19 1 3-9 20-7 15-1 2h-3l-16-32-10-23z" fill="#F4B5A3"/>
<path transform="translate(671,673)" d="m0 0h8l8 2v2l4 1v2l-6-1-2-1h-8l-1 4 1 10v7l-2 7h-1l-2-21-3-5 1-5z" fill="#F2CCA3"/>
<path transform="translate(1119,1598)" d="m0 0 4 5 8 11 8 7 11 7 16 6 23 5v2l-11-1-19-5-10-4-11-7-13-13-6-8z" fill="#F4B8A4"/>
<path transform="translate(1210,876)" d="m0 0h1v5h2l3 4 2 10 8 4 2 4v3l2 1-7-1-8-7-4-6-2-6v-10z" fill="#1B1B1B"/>
<path transform="translate(1283,1532)" d="m0 0h7l8 5 4 6-1 4-4-6v-2l-4-2-3-1h-7l-20 7-12 3h-12v-2l20-2v-2l11-3 10-4z" fill="#F4B5A3"/>
<path transform="translate(1084,457)" d="m0 0m-2 1h2v3l-16 8-12 8-4 3-3-1-4-9v-5h3l2 6 2 1v2h2l3-3 11-7z" fill="#302C2E"/>
<path transform="translate(1019,694)" d="m0 0h1l1 8h2l2 16 8 15 4 13 1 5-1 3h-2l-4-16-8-16-3-9-1-5z" fill="#D23F43"/>
<path transform="translate(1085,520)" d="m0 0h6l1 3h5l4 4-2 5-6 3-5-1-3-5z" fill="#010101"/>
<path transform="translate(1060,665)" d="m0 0 6 5 5 5 12 5 9 2h33l-3 2-9 2h-18l-15-3-12-6-8-10z" fill="#4C494B"/>
<path transform="translate(1321,821)" d="m0 0 4 1 7 6 5 9v11l-6-5-2-6-4-2-1-7z" fill="#473234"/>
<path transform="translate(1043,1429)" d="m0 0h1l4 23 1 12v33l-2 10-7 6-3-1 6-4 2-5 2-4-4-1 4-1-1-40-3-20z" fill="#F32330"/>
<path transform="translate(908,1542)" d="m0 0 10 1 2 3 46 1v2l-31 2-8-1-5-1h-7v-3h-6z" fill="#E12029"/>
<path transform="translate(1225,631)" d="m0 0 5 1 12 11 5 9v21l-2 6h-1v-21l-3-9-10-11-6-5z" fill="#CE3138"/>
<path transform="translate(1084,881)" d="m0 0 2 2v10l-3 8-5 4h-10l1-7h3v2l4-1 4-7 1-6h2z" fill="#1D1C1D"/>
<path transform="translate(1117,440)" d="m0 0 2 1-1 4-12 7-16 8-6 1 1-4 19-10z" fill="#252224"/>
<path transform="translate(862,524)" d="m0 0h6l6 3v2l4 2 4 5v5l-5-1-7-6v-2l-6-1-3-3z" fill="#292628"/>
<path transform="translate(1190,421)" d="m0 0 11 4 11 8 10 8 2 2-1 1 4 2-4 1-11-8-10-9-10-5-7-1 4-2z" fill="#393234"/>
<path transform="translate(769,613)" d="m0 0h39l-1 2-49 2-14 2-13-1v-1l31-3z" fill="#57585B"/>
<path transform="translate(1098,497)" d="m0 0 2 1-1 1 2 2h-3l1 2 5 2-2 1h-7l-6 2-2 1-3 14h-1l-1-7-3-4 1-4 10-7z" fill="#565659"/>
<path transform="translate(954,588)" d="m0 0h24l1 5-50 1v-1l9-1 26-1 2 1v-3l-5 1-26 1v-1z" fill="#5F5E61"/>
<path transform="translate(1055,576)" d="m0 0 3 1-4 4-7 5-17 4-6 3v-2l-4 1 3-3 19-8 11-4z" fill="#714244"/>
<path transform="translate(888,1514)" d="m0 0h97v1l-78 1-4 1h-12l2 5-1 3-5-7z" fill="#F5A69F"/>
<path transform="translate(1244,516)" d="m0 0 2 2 2 9 5 10 4 6 7 8v2h-5l-7-10-6-10-4-1v-6l1-1z" fill="#0F0E0E"/>
<path transform="translate(881,1436)" d="m0 0 1 3-1 5h53l1-5h1v7l-8 1h-29v2h-9l-9-2-2-2 1-7z" fill="#F32330"/>
<path transform="translate(811,1564)" d="m0 0h2l3 3 1-3 17 17-1 4-10-3v-2l-2-1-4-7-6-7z" fill="#F2222F"/>
<path transform="translate(1047,564)" d="m0 0h16v5h11l-1 3-12 3-2-3-14-5v-2z" fill="#282426"/>
<path transform="translate(845,525)" d="m0 0 3 1-2 5-8 5-3 4-7 1-1-3 5-7 6-4z" fill="#292628"/>
<path transform="translate(1243,415)" d="m0 0h11l12 3 17 8 1 4-7-2-14-7-9-2h-14z" fill="#1D1A1B"/>
<path transform="translate(1008,685)" d="m0 0 3 1-2 1v5l-14 15-6 2 1-4 2-4 1-15 2 1 2 12h2l2-4z" fill="#79262B"/>
<path transform="translate(830,646)" d="m0 0 4 1-6 5-1 3h2v3l7 2h9l4-1 1-9v-2l3 1v7l-4 5-5 3h-8l-6-3-4-5v-2h-9l1-2z" fill="#5C4043"/>
<path transform="translate(1432,1025)" d="m0 0 2 1-14 14-5 4-3 6-1 65h-1v-66l4-7 11-12 3-3z" fill="#363436"/>
<path transform="translate(1079,632)" d="m0 0h12l12 4 2 1v2l-11-3-13-1v2l6 1 7 4-2 1-18-4v-4z" fill="#373536"/>
<path transform="translate(1137,373)" d="m0 0 6 2 11 7 8 9 2 5v5h-3l-3-8-12-12-13-6z" fill="#332F31"/>
<path transform="translate(1523,1095)" d="m0 0 4 1-10 5-17 5-5 1h-16l5-4 23-2 15-5z" fill="#F2E2B0"/>
<path transform="translate(1037,751)" d="m0 0 2 4 1 20 10-10v6l-6 5-6 7-4 1 2-8v-22z" fill="#736163"/>
<path transform="translate(844,540)" d="m0 0 5 1 1 2v10l-5 1h-7l-1-3 4-8z" fill="#F3CFB0"/>
<path transform="translate(957,860)" d="m0 0 9 3 5 3 7 1-2 2-7-1-5-2-6 1-5 5-2 8h-3v-17h1v9l3-3h2v-2h-2v-5z" fill="#7E7E7E"/>
<path transform="translate(723,708)" d="m0 0 3 4v30l-4 2 1-7-2-19-1-8z" fill="#F2E0B0"/>
<path transform="translate(325,1345)" d="m0 0 4 5 5 8 5 13 3 4 3 7 4 8 7 15 2 4-1 3-32-64z" fill="#F2E2B0"/>
<path transform="translate(1239,537)" d="m0 0h1l-1 8-1 2-4-2-4-1 2 6 2 2 1 7 3 7-8-1-2-2 2-1v-5l-2-3v-9l1-4 6 2 1-4z" fill="#595A5D"/>
<path transform="translate(1337,854)" d="m0 0 2 3v11l-3 20h-3l1-8v-10l-8-13 2-2 4 5 1 4h3z" fill="#827D7D"/>
<path transform="translate(1465,846)" d="m0 0h12l16 2 7 2v1h-8l-4-1h-28l-14 1v-2z" fill="#F2E2B0"/>
<path transform="translate(740,1398)" d="m0 0h2l-2 6-11 23-10 21-8 15-1-3v-3h2v-2h-5l2-4h2v2l3-1 8-15 9-20z" fill="#F32330"/>
<path transform="translate(1512,1409)" d="m0 0 11 2 4 2v1h-22l-11 1-7 1v-2l6-3z" fill="#F22C36"/>
<path transform="translate(1071,780)" d="m0 0 1 2-2 7-3 3-4 8-5-2v4l-4-1 2-4 12-16z" fill="#45282A"/>
<path transform="translate(698,592)" d="m0 0 36 1v2l-10 1h-31l2-3z" fill="#7B7474"/>
<path transform="translate(1334,885)" d="m0 0h1v6l-4 3-10 5-6 5-7 3-7-2 3-2-1-2 8 1 8-6 4-4 9-1v-3h2z" fill="#434244"/>
<path transform="translate(1108,533)" d="m0 0 3 1-1 7-2 17v6l-1 4-1 3-2-6v-16l3-15z" fill="#57585B"/>
<path transform="translate(1222,578)" d="m0 0 6 4 6 2-1-6h3l7 8 4 5-6-1-6-3h-3l-1 6-2-2-2-5-3-3z" fill="#3C3537"/>
<path transform="translate(845,708)" d="m0 0 2 2 4 18 2 4 2 2h-3l-1 5-2-4-2-10-3-3v-2l-4-2v-3h3l1-6z" fill="#241E1F"/>
<path transform="translate(334,1534)" d="m0 0h23l8 2v2l5 1 11 7 8 7-1 2-9-8-10-6-13-4h-25v-2z" fill="#5B595A"/>
<path transform="translate(896,1321)" d="m0 0h26l21 3 3 2-18-1-13-2h-15l-24 3-9 1v-1l20-4z" fill="#F32330"/>
<path transform="translate(974,903)" d="m0 0 2 1h25l-4 3 5 1v1l-14 1-5 1h-9l-1-2 5-1-4-3z" fill="#7B7979"/>
<path transform="translate(1357,495)" d="m0 0h1l1 12-7 13-9 10-4 1 2-5 8-8 6-11 1-2z" fill="#272426"/>
<path transform="translate(1069,896)" d="m0 0 2 2h-2l-1 7h7v1l-18 3h-9l3-7h16z" fill="#2E2C2E"/>
<path transform="translate(1061,745)" d="m0 0h3l-1 9-4 8-2 1-4 7h-4l1-5 2-3h2l2-5z" fill="#363334"/>
<path transform="translate(1034,1557)" d="m0 0 2 3 10 24 1 8-4 11-4 6-4 1 4-5 4-11v-11l-9-22z" fill="#F4B3A3"/>
<path transform="translate(881,1439)" d="m0 0h2l1 3 48 1 2 2h-49l-4-1z" fill="#F4C0A6"/>
<path transform="translate(1335,474)" d="m0 0 5 3 13 10 6 7v8l-2 3-2 2v-13l-10-9-11-8z" fill="#292729"/>
<path transform="translate(338,1563)" d="m0 0h16l8 4-2 1-7-3-14-1v2l-10 5-7 8-3 10-2 1 1-9 6-10 10-7z" fill="#5F5859"/>
<path transform="translate(730,514)" d="m0 0 3 2 8 16 4 2 4-9 3-5h2l-2 5-5 14h-4l-6-8-7-14z" fill="#4E3034"/>
<path transform="translate(1008,1529)" d="m0 0h9l6 4 6 9 5 13-1 4-7-17-5-8-4-2-11 1-11 3 4-4z" fill="#F5AEA1"/>
<path transform="translate(821,753)" d="m0 0h2l3 7 3 1 2-1-1 5-5 4h-4l-2 2 1-17z" fill="#312E2F"/>
<path transform="translate(1374,1467)" d="m0 0 2 1 1 29v14h-1l-3-24v-19z" fill="#333032"/>
<path transform="translate(1121,688)" d="m0 0h15l8 5 3 10-2 1-1-6-4-2-4-3-9-1-6-1z" fill="#595859"/>
<path transform="translate(1024,676)" d="m0 0h3l-2 4-4 9h-1v-6l-6 3-4 4-2-1 2-3v-3l6-6 8 1z" fill="#534546"/>
<path transform="translate(1073,623)" d="m0 0h24l17 4 12 6-4 1-9-4v-2h-7l-13-2-20-2z" fill="#363436"/>
<path transform="translate(940,593)" d="m0 0h40l1 3-28-1-17 1h-11l2-2z" fill="#292628"/>
<path transform="translate(1191,464)" d="m0 0 4 1-5 3h-2v2l4-1-5 5-9 6h-8v-2l8-4z" fill="#5A5B5D"/>
<path transform="translate(1254,440)" d="m0 0 5 1 7 6 2 3 2 9-1 4-1-5h-2l-6-9-6-7z" fill="#0F0E0F"/>
<path transform="translate(977,799)" d="m0 0 2 1 5 25 3 2-8 2 2-3-2-7-1-8-3-4 1-7z" fill="#F0DEAE"/>
<path transform="translate(1126,634)" d="m0 0 5 2 8 8 3 7v11l-2 6h-1v-16l-5-9-8-6z" fill="#4A4849"/>
<path transform="translate(1227,1521)" d="m0 0 2 2 1 10 4 6 6 3h9l10-1-3 2-17 2-5-1-5-6-2-7z" fill="#F4BEA6"/>
<path transform="translate(1096,507)" d="m0 0h7l2 2v7l-3 2-5-1-1-7-3-1z" fill="#010101"/>
<path transform="translate(701,789)" d="m0 0h2l-2 11v8l4 6 5 5 5 1-3 4-11-8-4-7 2-10z" fill="#817E7F"/>
<path transform="translate(968,1630)" d="m0 0h5l-2 2-13 2-12 1h-18v-2l34-2z" fill="#F4B2A2"/>
<path transform="translate(659,1567)" d="m0 0 1 4-7 14-6 13-1-4 3-9 8-16z" fill="#F4BEA6"/>
<path transform="translate(786,1219)" d="m0 0 26 1 5 4-10-1h-14l-9-1-8-1v-1z" fill="#F32330"/>
<path transform="translate(862,544)" d="m0 0h5l3 5v5l-5-1-5 1-1-1v-5z" fill="#F4D8BF"/>
<path transform="translate(967,495)" d="m0 0 1 2-4 16-8 18h-3l8-20 5-15z" fill="#513336"/>
<path transform="translate(847,742)" d="m0 0 1 3v2l2 1-12 2-2 6h-2l-1-7-1-3-2-1 1-2 9 2 5-1z" fill="#F0D0A7"/>
<path transform="translate(706,773)" d="m0 0h2l-3 11-2 5h-2l-2 19-2-2v-8l3-13h2l1-7z" fill="#A69B9B"/>
<path transform="translate(1026,680)" d="m0 0 2 1-1 6-3 7-2 12-2-4v-13l3-6z" fill="#47373A"/>
<path transform="translate(772,467)" d="m0 0 4 2 16 12 1 4-20 1-2 4-1-5 1-1 15-1 5 1-5-5-10-7-4-3z" fill="#7B2F35"/>
<path transform="translate(1144,695)" d="m0 0 3 3 2 7v12l-1 8h-1v-8h-2l-2-16-1-3h2l2 4z" fill="#7A7879"/>
<path transform="translate(911,500)" d="m0 0 1 3 5 1 6 4 5 6v5l-5 3 4 4-6-2-1-4 5-3-3-6v-2l-6-2-6-3z" fill="#5D3237"/>
<path transform="translate(935,467)" d="m0 0 2 3-19 7-13 7h-2v-2l23-12z" fill="#732E34"/>
<path transform="translate(1473,1593)" d="m0 0 17 1h17l18-1v1l-9 2h-37l-6-2z" fill="#3B3738"/>
<path transform="translate(997,905)" d="m0 0h11l6 3 6 2v2l-10-1-1-1-12-2z" fill="#0A0909"/>
<path transform="translate(1124,405)" d="m0 0 6 2 5 5v14l-2 4h-2v-16l-7-8z" fill="#1D1B1C"/>
<path transform="translate(1015,1684)" d="m0 0h6l-3 2-22 5-16 1 4-2 20-4z" fill="#F2E2B0"/>
<path transform="translate(393,1626)" d="m0 0v3l-7 8-6 4-7 4-9 2-4-1 13-5 7-3 1-2 5-3z" fill="#494446"/>
<path transform="translate(1119,1598)" d="m0 0 4 5 8 11 8 7 8 6-1 2-9-6-12-12-6-8z" fill="#F4BBA5"/>
<path transform="translate(539,1327)" d="m0 0h2l11 23 9 19h-3l-11-24-7-14z" fill="#F5AFA1"/>
<path transform="translate(845,668)" d="m0 0h3l-1 5-4 3h-12l-1-3 12-3z" fill="#393739"/>
<path transform="translate(1255,487)" d="m0 0 1 4-2 5-4 6-2 1-2 5-2-1 3-9 6-10z" fill="#1C1A1B"/>
<path transform="translate(698,1631)" d="m0 0 1 3-10 20-5 8-1-3 5-11 5-9z" fill="#F2E2B0"/>
<path transform="translate(364,1611)" d="m0 0 3 1-6 5-9 4h-11l-8-3 2-1 14 1 11-4z" fill="#4E4B4C"/>
<path transform="translate(1071,622)" d="m0 0h20v1l-18 1-8 5-5 7h-2l-1 6-1-4 5-10 5-4z" fill="#5A5A5B"/>
<path transform="translate(1241,645)" d="m0 0 3 1 3 6v21l-2 6h-1v-27l-3-5z" fill="#903C41"/>
<path transform="translate(961,589)" d="m0 0h5v3l-28 1-13 1 2-1v-2z" fill="#7D7E7E"/>
<path transform="translate(1268,452)" d="m0 0 2 2 1 4v9l-4 10-2-1h-1l-1-2 3-6 1-10 2 1z" fill="#292628"/>
<path transform="translate(1328,1481)" d="m0 0 5 2 13 12 6 7-1 2-6-5-5-6-7-5-5-5z" fill="#F2E2B0"/>
<path transform="translate(1028,727)" d="m0 0 4 4 4 10 2 10-1 3h-2l-4-16-3-6z" fill="#D7383F"/>
<path transform="translate(989,618)" d="m0 0h2l1 15-1 1 2 2-3 2-4-8 1-9z" fill="#C06968"/>
<path transform="translate(772,597)" d="m0 0h10l22 5 3 2-12-1-21-4z" fill="#67686A"/>
<path transform="translate(1174,548)" d="m0 0 1 4-1 6-5 8-4 2 1-5 7-14z" fill="#211E20"/>
<path transform="translate(1080,853)" d="m0 0h5l4 7-5 4-3-3-1-4-3-1z" fill="#010101"/>
<path transform="translate(489,813)" d="m0 0h4l7 10 13 21-1 2-7-10-8-13-5-6v-2l-3-1z" fill="#706D6F"/>
<path transform="translate(776,735)" d="m0 0 2 1-20 18-7 9-3 1-1-2 2-3h2l9-10 9-9z" fill="#292628"/>
<path transform="translate(893,1523)" d="m0 0 5 5 10 6 13 4-3 2-6-1-11-5-6-5-2-3z" fill="#F4BBA5"/>
<path transform="translate(993,686)" d="m0 0 2 1 1 9v10l-5 3h-2l1-4 2-4z" fill="#241C1D"/>
<path transform="translate(421,1553)" d="m0 0 5 1 2 2v4l-5 2h-4v-3l4-2-5-2v2h-9l4-2z" fill="#3D3335"/>
<path transform="translate(1052,517)" d="m0 0h4l-1 3-10 3-10 1v-4z" fill="#B28C8B"/>
<path transform="translate(788,1565)" d="m0 0 5 5 11 14 13 13-1 2-12-12-9-10v-2h-2l-5-7z" fill="#F3C2A7"/>
<path transform="translate(369,1575)" d="m0 0 4 4 2 6v14l-3 7h-1l1-19-1-7z" fill="#545253"/>
<path transform="translate(939,1434)" d="m0 0h2l2 2 2 3-1 5-3 2-4-2v-8z" fill="#F32330"/>
<path transform="translate(781,1424)" d="m0 0 1 3v5 2l-1 3-1-1-1 2h-4l-1-4 5-9z" fill="#F32330"/>
<path transform="translate(1248,502)" d="m0 0 1 3-1 3v15l1 7-2-3-2-9-2 4v-14l3-1z" fill="#292628"/>
<path transform="translate(666,746)" d="m0 0 1 4-4 10-3 10h7l-1 2h-8l1-9 3-10-2-2z" fill="#504D4E"/>
<path transform="translate(791,726)" d="m0 0h14l10 4 2 3h-3v-2l-13-2h-13z" fill="#737273"/>
<path transform="translate(1196,536)" d="m0 0 4 1 1 1v6l-1 1-8-1-1-3z" fill="#727374"/>
<path transform="translate(1045,465)" d="m0 0h3l2 6 2 1v2h2l1 4-5 2-5-10z" fill="#232123"/>
<path transform="translate(1074,1659)" d="m0 0 3 1-15 9-12 6-3-1 4-3 7-3 9-6z" fill="#F2E2B2"/>
<path transform="translate(773,749)" d="m0 0h2l2 15 2 5-3-1-4-5v-2l-3-1 3-7z" fill="#333032"/>
<path transform="translate(1235,705)" d="m0 0 1 4-5 13-5 6-4-1 6-7 4-8 2-6z" fill="#D8353E"/>
<path transform="translate(1219,645)" d="m0 0 5 1 6 7 1 2v8h-2l-4-10z" fill="#494749"/>
<path transform="translate(1010,616)" d="m0 0h3l-1 4-8 7-2 2-5-1 5-5z" fill="#444345"/>
<path transform="translate(1197,603)" d="m0 0 3 3 4 6v2l4 2-1 3-4-1-5-6-1-2z" fill="#2B282B"/>
<path transform="translate(810,756)" d="m0 0 1 4-6 10-1 6h-3l1-6-4 1 5-5z" fill="#666668"/>
<path transform="translate(848,741)" d="m0 0 2 3 7 2-1 5v9l4 7-4-2-3-5v-7l1-5-6-1-1-3z" fill="#585556"/>
<path transform="translate(724,478)" d="m0 0h1l2 17 5 20-3-1-5-19z" fill="#873037"/>
<path transform="translate(1035,905)" d="m0 0h6l4 3v2l-12-1v2h-6l3-4z" fill="#0A0A0B"/>
<path transform="translate(1210,527)" d="m0 0 3 3-1 12-2 3-3-10-4-3-4-2 6-1 5 5 1-3z" fill="#57585B"/>
<path transform="translate(1112,518)" d="m0 0 3 3-1 6-2 7h-2l-1 2-1-7 3-10z" fill="#4F4F52"/>
<path transform="translate(1441,918)" d="m0 0 2 1-12 9-10 9-9 6 1-3 8-7 15-12z" fill="#7D7475"/>
<path transform="translate(728,618)" d="m0 0h10l-2 2-18 4h-3l1-4z" fill="#6A6B6C"/>
<path transform="translate(963,901)" d="m0 0h10l3 5 5 1-3 2h-6l-4-4-5-2z" fill="#292728"/>
<path transform="translate(845,525)" d="m0 0 3 1-2 4-13 6-1-2 5-5z" fill="#68696A"/>
<path transform="translate(1117,367)" d="m0 0 10 1 10 4v2l-9-1-7-2v-2l-4-1z" fill="#191516"/>
<path transform="translate(1071,504)" d="m0 0h4l-2 4-12 6-3-1 6-6z" fill="#1C1A1C"/>
<path transform="translate(842,636)" d="m0 0h2l1 6 5 4v2l-6-2-4-2-5 1 2-4z" fill="#424143"/>
<path transform="translate(953,529)" d="m0 0 1 3-2 6-6 8-5 2-2-4h3l4-1 2-5z" fill="#93272F"/>
<path transform="translate(1243,415)" d="m0 0h11l5 1v3h-19z" fill="#281F20"/>
<path transform="translate(1142,755)" d="m0 0 5 2 5 8 1 2-5-1-4-4v-2l-5 1-2-2z" fill="#302D2F"/>
<path transform="translate(1060,665)" d="m0 0 6 5 5 5 10 5v2l3 1-5-1-9-4-5-5-5-6z" fill="#444142"/>
<path transform="translate(1055,576)" d="m0 0 3 1-4 4-5 4h-5l-2-4 11-4z" fill="#474142"/>
<path transform="translate(1131,448)" d="m0 0 10 2 2 2-1 5-1-2-11-3-3-2z" fill="#302C2E"/>
<path transform="translate(1081,633)" d="m0 0h7l5 1v1h-12v2l6 1 7 4-2 1-10-4-6-2v-2z" fill="#707172"/>
<path transform="translate(1065,561)" d="m0 0h7l-1 3-4 1-1 2 8 1v1l-9 1-2-1-1-4h-7v-1l8-2z" fill="#626063"/>
<path transform="translate(1140,455)" d="m0 0h3v10l3 7v4l-4-1-2-8z" fill="#616264"/>
<path transform="translate(1283,1628)" d="m0 0 4 2-9 3-13 3h-7l2-2 20-5z" fill="#F4B5A3"/>
<path transform="translate(865,526)" d="m0 0 7 2 7 8h-3l-11-6z" fill="#68696B"/>
<path transform="translate(1153,385)" d="m0 0 6 2 4 6 1 8h-3l-3-8-4-6z" fill="#8F2A2F"/>
<path transform="translate(817,1598)" d="m0 0 4 2 13 8 7 4-4 1-14-8-6-5z" fill="#F4B4A3"/>
<path transform="translate(1259,1540)" d="m0 0h5l-1 3-12 3h-12v-2l20-2z" fill="#F5A59F"/>
<path transform="translate(1210,876)" d="m0 0h1v5h2l2 4-1 7-3 1-2-6v-10z" fill="#312E30"/>
<path transform="translate(720,1441)" d="m0 0 1 2-8 16-3 4v-6h2v-2h-5l2-4h2v2l3-1z" fill="#F2222F"/>
<path transform="translate(1286,905)" d="m0 0 2 1v1l3 1-10 4-6-1-1-3 9-2z" fill="#383638"/>
<path transform="translate(864,540)" d="m0 0 4 2 3 4 1 9-2 2-6-3 1-2 4 1-1-6-1-2h-6v-2h2z" fill="#605B5C"/>
<path transform="translate(1213,765)" d="m0 0 1 3 5 1 2 5-1 5-5-5-3-6z" fill="#2D2A2C"/>
<path transform="translate(1037,751)" d="m0 0 2 4 1 17-3 1-1-9v-10z" fill="#6A3338"/>
<path transform="translate(762,743)" d="m0 0 4 1-17 17 2-4 6-9z" fill="#68696B"/>
<path transform="translate(1084,881)" d="m0 0 2 2v10l-2 6-1-3v-4h-2v-6h2z" fill="#373537"/>
<path transform="translate(1356,853)" d="m0 0h22l10 2v1h-13l-19-2z" fill="#F2E2B0"/>
<path transform="translate(1242,679)" d="m0 0h2l-3 9-3 7-2-3v-7h3l2-5z" fill="#302A2A"/>
<path transform="translate(1019,591)" d="m0 0h5l-1 3-11 6-3-3z" fill="#59383B"/>
<path transform="translate(1142,740)" d="m0 0h1l2 16-4 1h-3l1-1 1-10h2z" fill="#4C4B4D"/>
<path transform="translate(729,741)" d="m0 0 2 1-14 8-9 3-2-1 9-4h2v-2l8-4z" fill="#4F4648"/>
<path transform="translate(918,592)" d="m0 0h9v3l-11 1h-9l3-1v-2z" fill="#67686A"/>
<path transform="translate(995,1533)" d="m0 0 3 1-5 3-10 3-8-1 4-2z" fill="#F4BBA5"/>
<path transform="translate(1363,1407)" d="m0 0h1l-1 14-2 8h-1v-15z" fill="#F2E2B0"/>
<path transform="translate(1446,1016)" d="m0 0h7l10 4-2 1-12-3-9 2-1 3-5 2 3-5z" fill="#3C3638"/>
<path transform="translate(1049,525)" d="m0 0 11 2v1l-13 2h-12l-2-4 3 2h9z" fill="#796E6F"/>
<path transform="translate(1230,494)" d="m0 0 2 2 4 16-1 3-4-4z" fill="#2C2A2C"/>
<path transform="translate(1184,472)" d="m0 0 2 1-4 5-4 2h-8v-2l11-4z" fill="#363435"/>
<path transform="translate(805,1364)" d="m0 0 1 3-7 9h-2l-2 4-3 5h-2l2-5 8-10z" fill="#F32330"/>
<path transform="translate(1316,898)" d="m0 0 2 1v3l-10 5-7-2 3-2-1-2 8 1z" fill="#515052"/>
<path transform="translate(993,674)" d="m0 0 2 4 1 3v15h-1l-1-9h-2v-12z" fill="#494446"/>
<path transform="translate(1103,625)" d="m0 0 7 1 13 5 3 3-7-1-6-3v-2h-7l-3-1z" fill="#4D4C4D"/>
<path transform="translate(1249,530)" d="m0 0 4 4 12 16-1 2-10-11-5-9z" fill="#292628"/>
<path transform="translate(1559,1274)" d="m0 0 5 1 19 10-3 1-16-8z" fill="#3A3234"/>
<path transform="translate(1495,916)" d="m0 0 5 2 11 8 5 6-1 2-10-10-10-6z" fill="#787273"/>
<path transform="translate(1102,742)" d="m0 0h1v6l-6 9-1-2-2-1z" fill="#666768"/>
<path transform="translate(1122,441)" d="m0 0 2 1-4 4 2 1 9 1v1l-15 2 2-1v-2h-5l5-4z" fill="#5A5B5D"/>
<path transform="translate(850,543)" d="m0 0h1v12l-2 2-5-1-3-1-4 1 1-4 1 1h10z" fill="#707172"/>
<path transform="translate(900,484)" d="m0 0 3 1-2 1 2 1v2l10 3 2 2v4h-2l-2-4-9-3-4-4z" fill="#5F3035"/>
<path transform="translate(1239,1553)" d="m0 0 10 1 2 4h-12z" fill="#F32330"/>
<path transform="translate(1327,855)" d="m0 0 5 5 2 6 3 1v3l-4-1-7-12z" fill="#626365"/>
<path transform="translate(901,757)" d="m0 0h1l-1 9-2 6h5v1h-6l-5-2 6-8z" fill="#6F7071"/>
<path transform="translate(1061,745)" d="m0 0h3l-1 9-3 4-1-2-2 1 3-9z" fill="#545153"/>
<path transform="translate(734,748)" d="m0 0 3 1-12 9-6 4 2-4 5-5z" fill="#727374"/>
<path transform="translate(848,721)" d="m0 0 2 4 3 7 2 2h-3l-1 5-2-4-2-10v-3z" fill="#3C3638"/>
<path transform="translate(1024,676)" d="m0 0h3l-2 4-4 9h-1v-6l-3-1 5-4h2z" fill="#F1D4B0"/>
<path transform="translate(1233,578)" d="m0 0h3l7 8 4 5-6-1-3-5-1-3h-3z" fill="#373537"/>
<path transform="translate(1239,537)" d="m0 0h1l-1 8-1 2-4-2h-5v-4l6 2 1-4z" fill="#57585B"/>
<path transform="translate(1033,516)" d="m0 0h7l3 1v3h-12v-3z" fill="#282324"/>
<path transform="translate(996,686)" d="m0 0h1l1 5 5 1-2 4-4 4h-1z" fill="#F2DBAE"/>
<path transform="translate(699,652)" d="m0 0h5l3 5-1 2-4-5-2-1-2 6-4-1-1-4h6z" fill="#423537"/>
<path transform="translate(759,594)" d="m0 0 10 1 7 1-4 2-21-2v-1z" fill="#57585B"/>
<path transform="translate(1225,566)" d="m0 0 8 6 2 6h-2l1 4-3 1-1-4 1-5-5-5z" fill="#5F5C5E"/>
<path transform="translate(757,503)" d="m0 0 2 1v4l3 2-1 5-6 4 2-4v-4l-2-6z" fill="#543135"/>
<path transform="translate(966,472)" d="m0 0 2 4v19l-3 8h-1l1-9 1-4z" fill="#C82933"/>
<path transform="translate(1164,398)" d="m0 0h1v11l-2 6-1-3h-2l2-11h2z" fill="#343133"/>
<path transform="translate(1523,1095)" d="m0 0 4 1-10 5-6 2-4-1 9-4z" fill="#F2E3B3"/>
<path transform="translate(960,845)" d="m0 0 2 1-2 5-4 4-2 3h-2v-5z" fill="#373537"/>
<path transform="translate(882,749)" d="m0 0 1 4-3 8-2 3v6h-2l-1-3-2-2 7-10z" fill="#847575"/>
<path transform="translate(1135,690)" d="m0 0 9 3 3 10-2 1-1-6-4-2-5-4z" fill="#3C3A3C"/>
<path transform="translate(904,617)" d="m0 0h11l-4 7-6 1v-2l5-1 1-2h-6z" fill="#292628"/>
<path transform="translate(1537,1364)" d="m0 0h2l-1 9-3 1v2h-3l2-6z" fill="#E62730"/>
<path transform="translate(1057,762)" d="m0 0h1l1 8-2 4 1 3-3-1-2-8z" fill="#706E70"/>
<path transform="translate(961,593)" d="m0 0h19l1 3-20-1z" fill="#302B2D"/>
<path transform="translate(841,1612)" d="m0 0 16 8-1 2-17-8z" fill="#F4BBA5"/>
<path transform="translate(1268,902)" d="m0 0 5 2 3 4-1 2-4-2-5-3-4-2z" fill="#565657"/>
<path transform="translate(1221,728)" d="m0 0h4v2l-8 7-4 1 2-4z" fill="#784A4F"/>
<path transform="translate(900,614)" d="m0 0h3l2 5 6 1-1 3h-5v-2l-4-1z" fill="#727072"/>
<path transform="translate(1056,517)" d="m0 0 1 2 5-2v3l-3 1 6 3v1h-7l-3-2h2v-2h-5z" fill="#595A5D"/>
<path transform="translate(911,500)" d="m0 0 1 3 5 1 6 4 3 3-1 2-3-2v-2l-6-2-6-3z" fill="#692E34"/>
<path transform="translate(527,1613)" d="m0 0h2l7 13 5 6-2 1-7-9-3-5-2-2z" fill="#F5ACA1"/>
<path transform="translate(1377,917)" d="m0 0 5 3 5 8 1 7-2-3-4-8v-2l-5-2-3-2z" fill="#6B6C6D"/>
<path transform="translate(1069,896)" d="m0 0 2 2h-2l-1 7h7v1l-11 1 1-3h-10v-1l12-1z" fill="#606061"/>
<path transform="translate(1232,556)" d="m0 0h2l4 10-8-1-2-2 3-2z" fill="#784045"/>
<path transform="translate(792,482)" d="m0 0 1 3-20 1-2 4-1-5 1-1 15-1 6 1z" fill="#542C30"/>
<path transform="translate(1109,364)" d="m0 0 10 2-1 2 3 2-8-1-8-2 4-1z" fill="#1F1D1F"/>
<path transform="translate(1041,353)" d="m0 0 13 1 7 1-4 2h-7l-9-2z" fill="#2A292A"/>
<path transform="translate(1256,1635)" d="m0 0 6 1v1l-15 3h-5l3-3z" fill="#F4BCA5"/>
<path transform="translate(1228,904)" d="m0 0 5 3h6l1-2h3v2l-3 2 3 2-8-1-8-2z" fill="#656667"/>
<path transform="translate(703,813)" d="m0 0 7 6 5 1-3 4-11-8 1-2z" fill="#6C6D6E"/>
<path transform="translate(1038,776)" d="m0 0h5l-2 4-5 4h-2l1-4z" fill="#3A3736"/>
<path transform="translate(790,704)" d="m0 0h15l9 1v1h-19l1 3-5-2z" fill="#4B3D3F"/>
<path transform="translate(986,630)" d="m0 0 2 1 1 3v8l-1 7h-1l-1-7z" fill="#715155"/>
<path transform="translate(1030,586)" d="m0 0 4 1v2l-7 3-3 1v-2l-4 1 3-3z" fill="#D2323A"/>
<path transform="translate(1047,564)" d="m0 0h7l3 1v2l-3 1h-7l-2-1v-2z" fill="#1B1A1B"/>
<path transform="translate(850,648)" d="m0 0 3 1v7l-4 5-5 2-1-2 6-2 1-9z" fill="#49373A"/>
<path transform="translate(1357,495)" d="m0 0h1l1 12-4 8h-2l3-10z" fill="#0F0F0F"/>
<path transform="translate(637,755)" d="m0 0 8 1 9-1-3 2-8 2h-7l-1-3z" fill="#553A3D"/>
<path transform="translate(775,732)" d="m0 0m-2 1 2 1-4 6-4 3-4-1z" fill="#6F7071"/>
<path transform="translate(1317,540)" d="m0 0m-1 1 3 2-3 3-2 1h-6l1-3z" fill="#1F1D1E"/>
<path transform="translate(1138,537)" d="m0 0h1v10h-3l-1-1v-7z" fill="#010101"/>
<path transform="translate(1026,410)" d="m0 0h1l4 16-3 2-2-4z" fill="#452F30"/>
<path transform="translate(1292,1534)" d="m0 0 5 2 4 5 1 6-4-5-1-3-4-2z" fill="#F4B7A4"/>
<path transform="translate(702,1479)" d="m0 0 1 3-6 13-3-1z" fill="#F4B5A3"/>
<path transform="translate(1478,1356)" d="m0 0 3 2-2 14-2-2v-12z" fill="#E72831"/>
<path transform="translate(1086,876)" d="m0 0h1v11l-2-2v-3l-3 4v-9z" fill="#696A6C"/>
<path transform="translate(1337,854)" d="m0 0 2 3v11l-5-2v-2h2z" fill="#8E8382"/>
<path transform="translate(1088,765)" d="m0 0 1 2h21l-2 2h-21z" fill="#7C7374"/>
<path transform="translate(1133,528)" d="m0 0h3l1 4 2 1h-3l-3-2-1 7-1 2h-2l3-11z" fill="#57585B"/>
<path transform="translate(730,449)" d="m0 0h10l10 4-4 1-16-4z" fill="#6F383E"/>
<path transform="translate(1367,1618)" d="m0 0 3 1-1 5 4 2-8 1z" fill="#4B383B"/>
<path transform="translate(1e3 903)" d="m0 0h8l2 1v2l8 1v1h-8l-4-2-7-1z" fill="#4E4D4E"/>
<path transform="translate(812,717)" d="m0 0 7 2-1 5-4 4v-7z" fill="#7B363A"/>
<path transform="translate(981,597)" d="m0 0 2 2 1 8-8-1 4-4z" fill="#2A282A"/>
<path transform="translate(1092,512)" d="m0 0h3v6l-5 1-1-4z" fill="#FCF0EF"/>
<path transform="translate(827,1345)" d="m0 0 2 1-9 10h-2l1-5z" fill="#F32330"/>
<path transform="translate(700,789)" d="m0 0 1 3-2 16-2-2v-8z" fill="#FCEDEC"/>
<path transform="translate(781,771)" d="m0 0h17l-2 2-9 1-6-2z" fill="#4F4F50"/>
<path transform="translate(1051,676)" d="m0 0h9v4l-6 1-9-1v-1l12-1-6-1z" fill="#515153"/>
<path transform="translate(1234,582)" d="m0 0h3l4 6-2 1-4-2h-4l-1-3h4z" fill="#58585B"/>
<path transform="translate(1043,519)" d="m0 0h4v2l-5 2-7 1v-4z" fill="#F2DAC0"/>
<path transform="translate(967,495)" d="m0 0 1 2-2 10-3 5-2 3 1-7 4-12z" fill="#5F383C"/>
<path transform="translate(1119,1598)" d="m0 0 4 5 5 7-1 3-8-10z" fill="#F3C3A7"/>
<path transform="translate(1044,1596)" d="m0 0 1 3-5 9-2 2-3-1 4-4 4-8z" fill="#F4BFA6"/>
<path transform="translate(673,692)" d="m0 0h2v7l-2 7h-1v-13z" fill="#F18888"/>
<path transform="translate(939,662)" d="m0 0 2 1-7 8-6 5v-3l7-6z" fill="#403234"/>
<path transform="translate(1241,645)" d="m0 0 3 1 3 6v12h-1l-1-8-3-8z" fill="#302D2F"/>
<path transform="translate(752,520)" d="m0 0h2l-4 10h-2l-2 6-3-1 2-1 4-9z" fill="#82343A"/>
<path transform="translate(1147,1627)" d="m0 0 13 5 1 3-10-3-4-3z" fill="#F4B3A3"/>
<path transform="translate(976,906)" d="m0 0 16 1v1l-17 2 3-2z" fill="#57585B"/>
<path transform="translate(1058,798)" d="m0 0h2v3h8l-1 2-6 2-4-4z" fill="#050505"/>
<path transform="translate(991,663)" d="m0 0h1l2 11-2 6-2-3z" fill="#DC2E35"/>
<path transform="translate(785,625)" d="m0 0h2v3l-4 3h-7l2-3z" fill="#AD9B9A"/>
<path transform="translate(772,597)" d="m0 0h10l5 1v2h-8l-7-2z" fill="#6A6B6D"/>
<path transform="translate(1364,1617)" d="m0 0 3 1-2 10h-2v-10z" fill="#F2D7AD"/>
<path transform="translate(1547,1363)" d="m0 0h2v6l-5 1-2-4z" fill="#E12029"/>
<path transform="translate(818,1225)" d="m0 0 3 3 1 2v7l-2 3-1-9-2-5z" fill="#F32330"/>
<path transform="translate(1054,772)" d="m0 0 2 4h5l-3 3h-6v-5z" fill="#201E1F"/>
<path transform="translate(1075,635)" d="m0 0 2 2 13 4-3 1-13-3v-3z" fill="#292628"/>
<path transform="translate(1200,611)" d="m0 0 8 5-1 3-4-1-3-5z" fill="#1D1C1D"/>
<path transform="translate(1106,563)" d="m0 0 4 4h2l-1 6-4-2z" fill="#292628"/>
<path transform="translate(1074,556)" d="m0 0m3 0 2 1-5 4-8 1 3-3 5-2h2z" fill="#434245"/>
<path transform="translate(1134,414)" d="m0 0h2v13l-4 7-2 1 1-5 2-1 1-3z" fill="#292628"/>
<path transform="translate(1460,1292)" d="m0 0h2l-2 4-9 7v-3z" fill="#302D2F"/>
<path transform="translate(1334,885)" d="m0 0h1v6l-4 3-8-1v-1l9-1v-3h2z" fill="#635C5D"/>
<path transform="translate(1233,818)" d="m0 0 4 1v2l3 1-1 3-4-1-2-3z" fill="#292628"/>
<path transform="translate(904,809)" d="m0 0 6 1 6 5v6h-1l-2-6-9-4z" fill="#716C6E"/>
<path transform="translate(833,661)" d="m0 0h10l1 3h-8l-3-1z" fill="#643136"/>
<path transform="translate(927,591)" d="m0 0h14l-3 2-13 1 2-1z" fill="#727374"/>
<path transform="translate(1096,535)" d="m0 0 2 1-6 3-3 1v7h-1l-1-10z" fill="#57585B"/>
<path transform="translate(975,1337)" d="m0 0 5 2 3 3-2 1-1 3-2-4-3-1v-3z" fill="#F32330"/>
<path transform="translate(704,753)" d="m0 0 2 1-1 2h-4l-1 3-6 3-2-1 10-7z" fill="#595253"/>
<path transform="translate(830,745)" d="m0 0 3 1 2 7-1 5h-2l-1-9z" fill="#584548"/>
<path transform="translate(1243,672)" d="m0 0h1v7l-6 6v-6l4-4z" fill="#F3D7AF"/>
<path transform="translate(936,540)" d="m0 0 3 4 3 3 3-1-2 4-4-1-3-5z" fill="#323032"/>
<path transform="translate(861,462)" d="m0 0h4l-1 4h-3l-7-1 4-2z" fill="#492E31"/>
<path transform="translate(849,452)" d="m0 0 2 1-2 6-1-2h-8l4-2z" fill="#4E3033"/>
<path transform="translate(476,1652)" d="m0 0 3 3v2l4 2 1 6-4-4-4-7z" fill="#F2E2B0"/>
<path transform="translate(709,1463)" d="m0 0 1 2-6 12-2-1 2-4-1-3 3-1z" fill="#F32330"/>
<path transform="translate(986,1344)" d="m0 0 5 2 5 5-5-1-1 2v-2l-3-1v-3z" fill="#F32330"/>
<path transform="translate(1623,1299)" d="m0 0 3 3 1 9-2 3z" fill="#433E40"/>
<path transform="translate(1520,951)" d="m0 0h1v10l-2 6-2 1 2-11z" fill="#6D6B6D"/>
<path transform="translate(1037,904)" d="m0 0 7 1 4 3 3 2-6 1-2-4-6-2zm12 1 2 1-2 1z" fill="#4F4E50"/>
<path transform="translate(661,761)" d="m0 0 1 3-2 6h7l-1 2h-8l1-9z" fill="#706667"/>
<path transform="translate(822,762)" d="m0 0 2 2v3l2 1-5 1-2 2v-5z" fill="#676768"/>
<path transform="translate(773,751)" d="m0 0h1v13l-2-1v-2l-3-1z" fill="#737172"/>
<path transform="translate(1185,756)" d="m0 0h3l-2 4h-2l-1 3h-4l1-3z" fill="#3A3839"/>
<path transform="translate(848,741)" d="m0 0 2 3 7 2-1 5-1-4h-7l-1-3z" fill="#312E30"/>
<path transform="translate(825,649)" d="m0 0 2 1-1 4h-9l1-2z" fill="#292628"/>
<path transform="translate(1208,617)" d="m0 0h4l1 4h-2v2l-4-2-2-2z" fill="#3C3A3C"/>
<path transform="translate(953,529)" d="m0 0 1 3-2 6-5 3 2-5z" fill="#912B33"/>
<path transform="translate(1076,521)" d="m0 0 3 1 1 4-4 4v-5l-4-2z" fill="#57585B"/>
<path transform="translate(1254,440)" d="m0 0 5 1 2 3-3 3-4-5z" fill="#292628"/>
<path transform="translate(1616,1448)" d="m0 0 10 1-1 3-9-2z" fill="#E3252E"/>
<path transform="translate(1022,674)" d="m0 0h4v2h-2v2l-5 1v-4z" fill="#292829"/>
<path transform="translate(1220,625)" d="m0 0 6 4 1 2-3 1-5-3z" fill="#343233"/>
<path transform="translate(1481,1448)" d="m0 0" fill="#F2E2B0"/>
<path transform="translate(1508,1442)" d="m0 0" fill="#F2E2B0"/>
<path transform="translate(1482,1442)" d="m0 0" fill="#F2E2B0"/>
</svg>
