<svg width="30" height="30" viewBox="0 0 20 20" fill="none" xmlns="http://www.w3.org/2000/svg">
<path d="M15.0006 3.33398C13.5756 3.33398 12.709 3.60898 12.209 3.84232C11.5673 3.52565 10.834 3.33398 10.0007 3.33398C9.16732 3.33398 8.43398 3.52565 7.79232 3.84232C7.29232 3.60898 6.42565 3.33398 5.00065 3.33398C2.50065 3.33398 0.833984 10.0007 0.833984 11.6673C0.833984 12.359 1.93398 12.9923 3.45065 13.2507C3.98398 15.1173 6.50065 16.5423 9.58398 16.6673V13.1007C9.09232 12.7923 8.33398 12.234 8.33398 11.6673C8.33398 10.834 10.0007 10.834 10.0007 10.834C10.0007 10.834 11.6673 10.834 11.6673 11.6673C11.6673 12.234 10.909 12.7923 10.4173 13.1007V16.6673C13.5006 16.5423 16.0173 15.1173 16.5507 13.2507C18.0673 12.9923 19.1673 12.359 19.1673 11.6673C19.1673 10.0007 17.5006 3.33398 15.0006 3.33398ZM3.45898 11.559C3.04232 11.459 2.71732 11.3423 2.50065 11.2507C2.70898 8.94232 4.33398 5.33398 5.04232 5.00065C5.49232 5.00065 5.83398 5.05065 6.14232 5.09232C4.39232 7.01732 3.70065 10.034 3.45898 11.559ZM7.50065 10.0007C7.27964 10.0007 7.06768 9.91285 6.91139 9.75657C6.75511 9.60029 6.66732 9.38833 6.66732 9.16732C6.66732 8.71732 7.04232 8.33398 7.50065 8.33398C7.72166 8.33398 7.93363 8.42178 8.08991 8.57806C8.24619 8.73434 8.33398 8.9463 8.33398 9.16732C8.33398 9.63398 7.95898 10.0007 7.50065 10.0007ZM12.5006 10.0007C12.2796 10.0007 12.0677 9.91285 11.9114 9.75657C11.7551 9.60029 11.6673 9.38833 11.6673 9.16732C11.6673 8.71732 12.0423 8.33398 12.5006 8.33398C12.7217 8.33398 12.9336 8.42178 13.0899 8.57806C13.2462 8.73434 13.334 8.9463 13.334 9.16732C13.334 9.63398 12.959 10.0007 12.5006 10.0007ZM16.5423 11.559C16.3006 10.034 15.609 7.01732 13.859 5.09232C14.1673 5.05065 14.509 5.00065 14.959 5.00065C15.6673 5.33398 17.2923 8.94232 17.5006 11.2507C17.2923 11.3423 16.9673 11.459 16.5423 11.559Z" fill="#F8F8F8"/>
</svg>
