<svg width="32" height="32" viewBox="0 0 40 40" fill="none" xmlns="http://www.w3.org/2000/svg">
<path d="M15.834 36.6673C14.1951 36.6673 12.8129 36.1051 11.6873 34.9807C10.5618 33.8562 9.99954 32.474 10.0007 30.834C10.0007 30.584 10.0357 30.3895 10.1057 30.2507C10.1757 30.1118 10.1684 30.0007 10.084 29.9173C9.99954 29.834 9.88843 29.8273 9.75065 29.8973C9.61287 29.9673 9.41843 30.0018 9.16732 30.0007C7.52843 30.0007 6.14621 29.4384 5.02065 28.314C3.8951 27.1895 3.33287 25.8073 3.33399 24.1673C3.3351 22.5273 3.89787 21.1451 5.02232 20.0207C6.14676 18.8962 7.52843 18.334 9.16732 18.334C9.80621 18.334 10.3895 18.4173 10.9173 18.584C11.4451 18.7507 11.9451 19.0007 12.4173 19.334L19.334 12.4173C19.0007 11.9451 18.7507 11.4451 18.584 10.9173C18.4173 10.3895 18.334 9.80621 18.334 9.16732C18.334 7.52843 18.8968 6.14621 20.0223 5.02065C21.1479 3.8951 22.5295 3.33287 24.1673 3.33399C25.8051 3.3351 27.1873 3.89787 28.314 5.02232C29.4407 6.14676 30.0029 7.52843 30.0007 9.16732C30.0007 9.41732 29.9662 9.61176 29.8973 9.75065C29.8284 9.88954 29.8351 10.0007 29.9173 10.084C29.9995 10.1673 30.1107 10.1745 30.2507 10.1057C30.3907 10.0368 30.5851 10.0018 30.834 10.0007C32.4729 10.0007 33.8551 10.5634 34.9807 11.689C36.1062 12.8145 36.6684 14.1962 36.6673 15.834C36.6662 17.4718 36.104 18.854 34.9807 19.9807C33.8573 21.1073 32.4751 21.6695 30.834 21.6673C30.1951 21.6673 29.6118 21.584 29.084 21.4173C28.5562 21.2507 28.0562 21.0007 27.584 20.6673L20.6673 27.584C21.0007 28.0562 21.2507 28.5562 21.4173 29.084C21.584 29.6118 21.6673 30.1951 21.6673 30.834C21.6673 32.4729 21.1051 33.8551 19.9807 34.9807C18.8562 36.1062 17.474 36.6684 15.834 36.6673ZM15.834 33.334C16.5562 33.334 17.1534 33.0979 17.6257 32.6257C18.0979 32.1534 18.334 31.5562 18.334 30.834C18.334 30.584 18.2995 30.3412 18.2307 30.1057C18.1618 29.8701 18.0573 29.6407 17.9173 29.4173C17.4451 28.7507 17.2507 28.0357 17.334 27.2723C17.4173 26.509 17.7507 25.8351 18.334 25.2507L25.2507 18.334C25.834 17.7507 26.5079 17.4173 27.2723 17.334C28.0368 17.2507 28.7518 17.4451 29.4173 17.9173C29.6395 18.0562 29.869 18.1607 30.1057 18.2307C30.3423 18.3007 30.5851 18.3351 30.834 18.334C31.5562 18.334 32.1534 18.0979 32.6257 17.6257C33.0979 17.1534 33.334 16.5562 33.334 15.834C33.334 15.1118 33.0979 14.5145 32.6257 14.0423C32.1534 13.5701 31.5562 13.334 30.834 13.334C29.8618 13.334 29.1812 13.2851 28.7923 13.1873C28.4034 13.0895 28.0007 12.8329 27.584 12.4173C27.1673 12.0018 26.9107 11.599 26.814 11.209C26.7173 10.819 26.6684 10.1384 26.6673 9.16732C26.6673 8.4451 26.4312 7.84788 25.959 7.37565C25.4868 6.90343 24.8895 6.66732 24.1673 6.66732C23.4451 6.66732 22.8479 6.90343 22.3757 7.37565C21.9034 7.84788 21.6673 8.4451 21.6673 9.16732C21.6673 9.47287 21.6951 9.7301 21.7507 9.93899C21.8062 10.1479 21.9173 10.3629 22.084 10.584C22.5562 11.2507 22.7507 11.9662 22.6673 12.7307C22.584 13.4951 22.2507 14.1684 21.6673 14.7507L14.7507 21.6673C14.1673 22.2507 13.4934 22.584 12.729 22.6673C11.9645 22.7507 11.2495 22.5562 10.584 22.084C10.3618 21.9451 10.1329 21.8412 9.89732 21.7723C9.66176 21.7034 9.41843 21.6684 9.16732 21.6673C8.4451 21.6673 7.84788 21.9034 7.37565 22.3757C6.90343 22.8479 6.66732 23.4451 6.66732 24.1673C6.66732 24.8895 6.90343 25.4868 7.37565 25.959C7.84788 26.4312 8.4451 26.6673 9.16732 26.6673C10.1395 26.6673 10.8201 26.7162 11.209 26.814C11.5979 26.9118 12.0007 27.1684 12.4173 27.584C12.834 27.9995 13.0907 28.4023 13.1873 28.7923C13.284 29.1823 13.3329 29.8629 13.334 30.834C13.334 31.5562 13.5701 32.1534 14.0423 32.6257C14.5145 33.0979 15.1118 33.334 15.834 33.334Z" fill="#F8F8F8"/>
</svg>
