<?xml version="1.0" standalone="no"?>
<!DOCTYPE svg PUBLIC "-//W3C//DTD SVG 20010904//EN"
 "http://www.w3.org/TR/2001/REC-SVG-20010904/DTD/svg10.dtd">
<svg version="1.0" xmlns="http://www.w3.org/2000/svg"
 width="1080.000000pt" height="1080.000000pt" viewBox="0 0 1080.000000 1080.000000"
 preserveAspectRatio="xMidYMid meet">

<g transform="translate(0.000000,1080.000000) scale(0.100000,-0.100000)"
fill="#000000" stroke="none">
<path d="M5304 7547 c-164 -42 -282 -187 -292 -358 l-4 -77 -62 -22 c-438
-158 -763 -516 -883 -971 l-27 -104 -6 -727 -5 -727 -282 -235 c-155 -130
-287 -244 -292 -255 -6 -11 -11 -56 -11 -100 0 -70 3 -83 24 -108 l24 -28
1910 0 1910 0 26 24 c24 23 26 30 26 115 -1 56 -5 97 -13 106 -7 9 -137 120
-289 248 l-278 233 0 607 c0 606 -6 767 -36 911 -83 407 -379 780 -759 956
-49 23 -114 50 -142 59 l-53 18 0 59 c0 71 -30 165 -70 225 -86 124 -265 189
-416 151z m153 -192 c79 -23 143 -108 143 -188 0 -15 -6 -16 -42 -10 -52 8
-212 10 -293 3 l-60 -5 3 40 c6 71 58 132 140 161 47 17 49 17 109 -1z"/>
<path d="M5222 3630 c-355 -6 -346 -3 -298 -98 61 -121 167 -212 300 -261 61
-22 87 -25 181 -25 125 1 201 24 300 90 102 67 205 211 192 266 -11 42 24 40
-675 28z"/>
</g>
</svg>
