<svg width="29" height="29" viewBox="0 0 29 29" fill="none" xmlns="http://www.w3.org/2000/svg">
<path d="M27.84 0H1.16C0.518375 0 0 0.518375 0 1.16V27.84C0 28.4816 0.518375 29 1.16 29H27.84C28.4816 29 29 28.4816 29 27.84V1.16C29 0.518375 28.4816 0 27.84 0ZM10.585 20.6987V23.49C10.585 23.6495 10.4545 23.78 10.295 23.78H8.555C8.3955 23.78 8.265 23.6495 8.265 23.49V20.6987C6.75337 20.2057 5.655 18.7847 5.655 17.11C5.655 15.4352 6.75337 14.0106 8.265 13.5212V5.51C8.265 5.3505 8.3955 5.22 8.555 5.22H10.295C10.4545 5.22 10.585 5.3505 10.585 5.51V13.5212C12.0966 14.0142 13.195 15.4352 13.195 17.11C13.195 18.7847 12.0966 20.2094 10.585 20.6987ZM20.7205 15.4824C20.7277 15.4824 20.7314 15.4787 20.735 15.4787V23.49C20.735 23.6495 20.6045 23.78 20.445 23.78H18.705C18.5455 23.78 18.415 23.6495 18.415 23.49V15.4787C18.4222 15.4787 18.4259 15.4824 18.4295 15.4824C16.907 14.9966 15.805 13.572 15.805 11.89C15.805 10.208 16.907 8.78337 18.4295 8.29762C18.4223 8.29762 18.4186 8.30125 18.415 8.30125V5.51C18.415 5.3505 18.5455 5.22 18.705 5.22H20.445C20.6045 5.22 20.735 5.3505 20.735 5.51V8.30125C20.7277 8.30125 20.7241 8.29762 20.7205 8.29762C22.243 8.78337 23.345 10.208 23.345 11.89C23.345 13.572 22.243 14.9966 20.7205 15.4824ZM18.27 11.89C18.27 12.2361 18.4075 12.568 18.6522 12.8128C18.897 13.0575 19.2289 13.195 19.575 13.195C19.9211 13.195 20.253 13.0575 20.4978 12.8128C20.7425 12.568 20.88 12.2361 20.88 11.89C20.88 11.5439 20.7425 11.212 20.4978 10.9672C20.253 10.7225 19.9211 10.585 19.575 10.585C19.2289 10.585 18.897 10.7225 18.6522 10.9672C18.4075 11.212 18.27 11.5439 18.27 11.89ZM10.5632 16.4756L10.5089 16.3886C10.5089 16.385 10.5052 16.385 10.5052 16.3814L10.4726 16.3379C10.469 16.3342 10.4654 16.3306 10.4654 16.327C10.4291 16.2799 10.3929 16.2364 10.3494 16.1965L10.3421 16.1892C10.3276 16.1747 10.3131 16.1602 10.2986 16.1494C10.2696 16.1204 10.237 16.095 10.2044 16.0732H10.2007L10.1573 16.0406C10.1536 16.037 10.1464 16.0334 10.1427 16.0298C10.0992 16.0007 10.0521 15.9717 10.0014 15.95C9.99412 15.9464 9.98325 15.9427 9.976 15.9355C9.9615 15.9282 9.95062 15.9246 9.93612 15.9174C9.92525 15.9137 9.91075 15.9065 9.89987 15.9029C9.88175 15.8956 9.86362 15.8884 9.8455 15.8848C9.831 15.8811 9.81287 15.8739 9.79837 15.8702L9.76575 15.8594L9.715 15.8485C9.70775 15.8449 9.69687 15.8449 9.68962 15.8412C9.66425 15.8376 9.63888 15.8304 9.6135 15.8267C9.60625 15.8267 9.599 15.8267 9.59175 15.8231C9.57 15.8195 9.55187 15.8195 9.53012 15.8159C9.52287 15.8159 9.51562 15.8159 9.50475 15.8123C9.47575 15.8123 9.45037 15.8086 9.42137 15.8086C9.39237 15.8086 9.367 15.8086 9.338 15.8123C9.33075 15.8123 9.3235 15.8122 9.31262 15.8159C9.29087 15.8159 9.26912 15.8195 9.251 15.8231C9.24375 15.8231 9.2365 15.8231 9.22925 15.8267C9.20387 15.8304 9.1785 15.834 9.15312 15.8412C9.14587 15.8449 9.135 15.8449 9.12775 15.8485L9.077 15.8594L9.04437 15.8702C9.02987 15.8739 9.01175 15.8811 8.99725 15.8848C8.97913 15.892 8.961 15.8993 8.94287 15.9029C8.932 15.9065 8.9175 15.9137 8.90662 15.9174C8.89213 15.9246 8.88125 15.9282 8.86675 15.9355C8.8595 15.9391 8.84862 15.9427 8.84137 15.95C8.79425 15.9754 8.74712 16.0007 8.7 16.0298C8.69637 16.0334 8.68913 16.037 8.6855 16.0406L8.642 16.0732H8.63837C8.60575 16.0986 8.57312 16.124 8.54413 16.1494C8.52962 16.1639 8.51512 16.1747 8.50062 16.1892L8.49337 16.1965C8.45282 16.2383 8.41412 16.2818 8.37737 16.327C8.37375 16.3306 8.37012 16.3342 8.37012 16.3379L8.3375 16.3814C8.3375 16.385 8.33387 16.385 8.33387 16.3886L8.2795 16.4756C8.27587 16.4829 8.27225 16.4865 8.26863 16.4937C8.17075 16.6786 8.11275 16.8889 8.11275 17.11C8.11275 17.3311 8.17075 17.545 8.26863 17.7262C8.27225 17.7335 8.27587 17.7371 8.2795 17.7444L8.33387 17.8314C8.33387 17.835 8.3375 17.835 8.3375 17.8386L8.37012 17.8821C8.37375 17.8857 8.37737 17.8894 8.37737 17.893C8.41362 17.9401 8.44987 17.9836 8.49337 18.0235L8.50062 18.0308C8.51512 18.0452 8.52962 18.0597 8.54413 18.0706C8.57312 18.0996 8.60575 18.125 8.63837 18.1467H8.642L8.6855 18.1794C8.68913 18.183 8.69637 18.1866 8.7 18.1902C8.7435 18.2192 8.79062 18.2482 8.84137 18.27C8.84862 18.2736 8.8595 18.2773 8.86675 18.2845C8.88125 18.2917 8.89213 18.2954 8.90662 18.3026C8.9175 18.3062 8.932 18.3135 8.94287 18.3171C8.961 18.3244 8.97913 18.3316 8.99725 18.3352C9.01175 18.3389 9.02987 18.3461 9.04437 18.3498L9.077 18.3606L9.12775 18.3715C9.135 18.3751 9.14587 18.3751 9.15312 18.3787C9.1785 18.3824 9.20387 18.3896 9.22925 18.3932C9.2365 18.3932 9.24375 18.3932 9.251 18.3969C9.27275 18.4005 9.29087 18.4005 9.31262 18.4041C9.31987 18.4041 9.32712 18.4041 9.338 18.4077C9.367 18.4077 9.39237 18.4114 9.42137 18.4114C9.45037 18.4114 9.47575 18.4114 9.50475 18.4077C9.512 18.4077 9.51925 18.4077 9.53012 18.4041C9.55187 18.4041 9.57362 18.4005 9.59175 18.3969C9.599 18.3969 9.60625 18.3969 9.6135 18.3932C9.63888 18.3896 9.66425 18.386 9.68962 18.3787C9.69687 18.3751 9.70775 18.3751 9.715 18.3715L9.76575 18.3606L9.79837 18.3498C9.81287 18.3461 9.831 18.3389 9.8455 18.3352C9.86362 18.328 9.88175 18.3207 9.89987 18.3171C9.91075 18.3135 9.92525 18.3062 9.93612 18.3026C9.95062 18.2954 9.9615 18.2917 9.976 18.2845C9.98325 18.2809 9.99412 18.2773 10.0014 18.27C10.0485 18.2446 10.0956 18.2192 10.1427 18.1902C10.1464 18.1866 10.1536 18.183 10.1573 18.1794L10.2007 18.1467H10.2044C10.237 18.1214 10.2696 18.096 10.2986 18.0706C10.3131 18.0561 10.3276 18.0452 10.3421 18.0308L10.3494 18.0235C10.3892 17.9836 10.4291 17.9365 10.4654 17.893C10.469 17.8894 10.4726 17.8857 10.4726 17.8821L10.5052 17.8386C10.5052 17.835 10.5089 17.835 10.5089 17.8314L10.5632 17.7444C10.5669 17.7371 10.5705 17.7335 10.5741 17.7262C10.672 17.5414 10.73 17.3311 10.73 17.11C10.73 16.8889 10.672 16.675 10.5741 16.4937C10.5705 16.4865 10.5669 16.4792 10.5632 16.4756Z" fill="white"/>
</svg>
