<svg width="36" height="36" viewBox="0 0 40 40" fill="none" xmlns="http://www.w3.org/2000/svg">
<path d="M30 26.25V28.75H32.185C30.7988 30.6872 28.9697 32.2651 26.8502 33.3522C24.7307 34.4394 22.3821 35.0043 20 35C11.7287 35 5 28.2713 5 20H2.5C2.5 29.65 10.35 37.5 20 37.5C25.4438 37.5 30.4675 34.9988 33.75 30.8188V32.5H36.25V26.25H30Z" fill="#F8F8F8"/>
<path d="M28.1312 14.546L20.645 10.171C20.4539 10.0592 20.2365 10.0002 20.0152 10C19.7938 9.99978 19.5763 10.0584 19.385 10.1697L11.8712 14.5447C11.6823 14.6547 11.5255 14.8123 11.4165 15.0018C11.3075 15.1913 11.2501 15.4061 11.25 15.6247V24.3747C11.2501 24.5934 11.3075 24.8082 11.4165 24.9977C11.5255 25.1872 11.6823 25.3448 11.8712 25.4547L19.385 29.8297C19.5709 29.9409 19.7834 29.9996 20 29.9997C20.2175 29.9997 20.45 29.9435 20.645 29.8285L28.1312 25.4535C28.3196 25.3433 28.4757 25.1858 28.5843 24.9965C28.6928 24.8073 28.75 24.5929 28.75 24.3747V15.6247C28.75 15.4066 28.6928 15.1922 28.5843 15.003C28.4757 14.8137 28.3196 14.6562 28.1312 14.546ZM20.0137 12.696L25.0225 15.6247L20.0137 18.5522L14.985 15.6247L20.0137 12.696ZM13.75 17.7997L18.75 20.7122V26.5685L13.75 23.656V17.7997ZM21.25 26.581V20.7272L26.25 17.8047V23.6585L21.25 26.581Z" fill="#F8F8F8"/>
<path d="M20 2.50002C17.3512 2.49619 14.7363 3.09587 12.3538 4.25353C9.97134 5.41119 7.88392 7.09641 6.25 9.18127V7.50002H3.75V13.75H10V11.25H7.815C9.20122 9.31284 11.0303 7.73495 13.1498 6.64779C15.2693 5.56063 17.6179 4.99569 20 5.00002C28.2713 5.00002 35 11.7288 35 20H37.5C37.5 10.35 29.65 2.50002 20 2.50002Z" fill="#F8F8F8"/>
</svg>
