<svg width="30" height="30" viewBox="0 0 30 30" fill="none" xmlns="http://www.w3.org/2000/svg">
<path d="M15.0001 3.75C15.4974 3.75 15.9743 3.94754 16.3259 4.29917C16.6775 4.65081 16.8751 5.12772 16.8751 5.625C16.8751 6.12228 16.6775 6.59919 16.3259 6.95083C15.9743 7.30246 15.4974 7.5 15.0001 7.5C14.5028 7.5 14.0259 7.30246 13.6742 6.95083C13.3226 6.59919 13.1251 6.12228 13.1251 5.625C13.1251 5.12772 13.3226 4.65081 13.6742 4.29917C14.0259 3.94754 14.5028 3.75 15.0001 3.75ZM15.0001 1.875C14.0055 1.875 13.0517 2.27009 12.3484 2.97335C11.6452 3.67661 11.2501 4.63044 11.2501 5.625C11.2501 6.61956 11.6452 7.57339 12.3484 8.27665C13.0517 8.97991 14.0055 9.375 15.0001 9.375C15.9946 9.375 16.9485 8.97991 17.6517 8.27665C18.355 7.57339 18.7501 6.61956 18.7501 5.625C18.7501 4.63044 18.355 3.67661 17.6517 2.97335C16.9485 2.27009 15.9946 1.875 15.0001 1.875ZM17.3063 10.2937H12.6938C11.8136 10.2937 10.9695 10.6434 10.3471 11.2658C9.72473 11.8882 9.37507 12.7323 9.37507 13.6125V18.5625C9.35458 19.0835 9.53966 19.5917 9.89041 19.9775C10.2412 20.3634 10.7295 20.5959 11.2501 20.625V24.9937C11.2501 25.5905 11.4871 26.1628 11.9091 26.5847C12.331 27.0067 12.9033 27.2437 13.5001 27.2437H16.5001C16.802 27.2439 17.1008 27.1833 17.3788 27.0656C17.6568 26.9479 17.9082 26.7754 18.1182 26.5584C18.3281 26.3415 18.4923 26.0845 18.6008 25.8028C18.7094 25.5211 18.7601 25.2205 18.7501 24.9188V20.625C19.2707 20.5959 19.759 20.3634 20.1097 19.9775C20.4605 19.5917 20.6456 19.0835 20.6251 18.5625V13.6125C20.6251 12.7323 20.2754 11.8882 19.653 11.2658C19.0306 10.6434 18.1865 10.2937 17.3063 10.2937ZM11.2501 18.75V13.6125C11.2476 13.4222 11.2832 13.2333 11.3548 13.057C11.4265 12.8807 11.5328 12.7206 11.6673 12.586C11.8019 12.4514 11.9621 12.3452 12.1384 12.2735C12.3147 12.2019 12.5035 12.1662 12.6938 12.1687H17.3063C17.4966 12.1662 17.6855 12.2019 17.8618 12.2735C18.0381 12.3452 18.1983 12.4514 18.3328 12.586C18.4674 12.7206 18.5736 12.8807 18.6453 13.057C18.717 13.2333 18.7526 13.4222 18.7501 13.6125V18.75H16.8751V24.9563C16.8751 25.0557 16.8356 25.1511 16.7652 25.2214C16.6949 25.2917 16.5995 25.3313 16.5001 25.3313H13.5001C13.4006 25.3313 13.3052 25.2917 13.2349 25.2214C13.1646 25.1511 13.1251 25.0557 13.1251 24.9563V18.75H11.2501Z" fill="black"/>
</svg>
