<svg width="42" height="42" viewBox="0 0 42 42" fill="none" xmlns="http://www.w3.org/2000/svg">
<path d="M20.8332 6.94446C22.675 6.94446 24.4414 7.6761 25.7437 8.97844C27.046 10.2808 27.7777 12.0471 27.7777 13.8889C27.7777 15.7307 27.046 17.497 25.7437 18.7994C24.4414 20.1017 22.675 20.8333 20.8332 20.8333C18.9914 20.8333 17.2251 20.1017 15.9228 18.7994C14.6204 17.497 13.8888 15.7307 13.8888 13.8889C13.8888 12.0471 14.6204 10.2808 15.9228 8.97844C17.2251 7.6761 18.9914 6.94446 20.8332 6.94446ZM20.8332 24.3056C28.5068 24.3056 34.7221 27.4132 34.7221 31.25V34.7222H6.94434V31.25C6.94434 27.4132 13.1596 24.3056 20.8332 24.3056Z" fill="white"/>
</svg>
