<svg width="29" height="29" viewBox="0 0 29 29" fill="none" xmlns="http://www.w3.org/2000/svg">
<path d="M15 3C16.4587 3 17.8576 3.57946 18.8891 4.61091C19.9205 5.64236 20.5 7.04131 20.5 8.5C20.5 9.95869 19.9205 11.3576 18.8891 12.3891C17.8576 13.4205 16.4587 14 15 14C13.5413 14 12.1424 13.4205 11.1109 12.3891C10.0795 11.3576 9.5 9.95869 9.5 8.5C9.5 7.04131 10.0795 5.64236 11.1109 4.61091C12.1424 3.57946 13.5413 3 15 3ZM15 5.75C14.2707 5.75 13.5712 6.03973 13.0555 6.55546C12.5397 7.07118 12.25 7.77065 12.25 8.5C12.25 9.22935 12.5397 9.92882 13.0555 10.4445C13.5712 10.9603 14.2707 11.25 15 11.25C15.7293 11.25 16.4288 10.9603 16.9445 10.4445C17.4603 9.92882 17.75 9.22935 17.75 8.5C17.75 7.77065 17.4603 7.07118 16.9445 6.55546C16.4288 6.03973 15.7293 5.75 15 5.75ZM15 15.375C18.6713 15.375 26 17.2037 26 20.875V25H4V20.875C4 17.2037 11.3287 15.375 15 15.375ZM15 17.9875C10.9162 17.9875 6.6125 19.995 6.6125 20.875V22.3875H23.3875V20.875C23.3875 19.995 19.0837 17.9875 15 17.9875Z" fill="white"/>
</svg>
