<svg width="24" height="25" viewBox="0 0 24 25" fill="none" xmlns="http://www.w3.org/2000/svg">
<path d="M19.05 5.41006C18.1332 4.48399 17.0412 3.74973 15.8376 3.25011C14.6341 2.75049 13.3431 2.49552 12.04 2.50006C6.58 2.50006 2.13 6.95006 2.13 12.4101C2.13 14.1601 2.59 15.8601 3.45 17.3601L2.05 22.5001L7.3 21.1201C8.75 21.9101 10.38 22.3301 12.04 22.3301C17.5 22.3301 21.95 17.8801 21.95 12.4201C21.95 9.77006 20.92 7.28006 19.05 5.41006ZM12.04 20.6501C10.56 20.6501 9.11 20.2501 7.84 19.5001L7.54 19.3201L4.42 20.1401L5.25 17.1001L5.05 16.7901C4.22775 15.477 3.79114 13.9593 3.79 12.4101C3.79 7.87006 7.49 4.17006 12.03 4.17006C14.23 4.17006 16.3 5.03006 17.85 6.59006C18.6175 7.35402 19.2257 8.26272 19.6394 9.26348C20.0531 10.2642 20.264 11.3372 20.26 12.4201C20.28 16.9601 16.58 20.6501 12.04 20.6501ZM16.56 14.4901C16.31 14.3701 15.09 13.7701 14.87 13.6801C14.64 13.6001 14.48 13.5601 14.31 13.8001C14.14 14.0501 13.67 14.6101 13.53 14.7701C13.39 14.9401 13.24 14.9601 12.99 14.8301C12.74 14.7101 11.94 14.4401 11 13.6001C10.26 12.9401 9.77 12.1301 9.62 11.8801C9.48 11.6301 9.6 11.5001 9.73 11.3701C9.84 11.2601 9.98 11.0801 10.1 10.9401C10.22 10.8001 10.27 10.6901 10.35 10.5301C10.43 10.3601 10.39 10.2201 10.33 10.1001C10.27 9.98006 9.77 8.76006 9.57 8.26006C9.37 7.78006 9.16 7.84006 9.01 7.83006H8.53C8.36 7.83006 8.1 7.89006 7.87 8.14006C7.65 8.39006 7.01 8.99006 7.01 10.2101C7.01 11.4301 7.9 12.6101 8.02 12.7701C8.14 12.9401 9.77 15.4401 12.25 16.5101C12.84 16.7701 13.3 16.9201 13.66 17.0301C14.25 17.2201 14.79 17.1901 15.22 17.1301C15.7 17.0601 16.69 16.5301 16.89 15.9501C17.1 15.3701 17.1 14.8801 17.03 14.7701C16.96 14.6601 16.81 14.6101 16.56 14.4901Z" fill="black"/>
</svg>
